<?xml version="1.0" encoding="UTF-8"?>
<svg width="104px" height="72px" viewBox="0 0 104 72" version="1.1" xmlns="http://www.w3.org/2000/svg" xmlns:xlink="http://www.w3.org/1999/xlink">
    <!-- Generator: sketchtool 64 (101010) - https://sketch.com -->
    <title>4E62CF0D-8AAD-45F0-AD86-FF826127627E</title>
    <desc>Created with sketchtool.</desc>
    <g id="Dump" stroke="none" stroke-width="1" fill="none" fill-rule="evenodd">
        <g id="Hero-Screen" transform="translate(-1139.000000, -5349.000000)" fill-rule="nonzero">
            <g id="Support-footer" transform="translate(0.000000, 5291.000000)">
                <g id="box-(1)" transform="translate(1139.000000, 58.000000)">
                    <g id="Group" transform="translate(2.000000, 2.000000)" fill="#FFAD61">
                        <polygon id="Path" points="49.9953252 67.8855808 18.4859756 56.2162515 18.4859756 18.6664072 49.9953252 30.3603713"></polygon>
                        <polygon id="Path" points="49.9953252 67.8855808 81.5044715 56.2162515 81.5044715 18.6664072 49.9953252 30.3603713"></polygon>
                        <polygon id="Path" points="99.9595528 11.7837485 68.3867886 0.114419162 49.9953252 6.95635928 81.5044715 18.6664072"></polygon>
                        <polygon id="Path" points="0.0404471545 25.5014251 31.6132114 37.1707545 49.9953252 30.3603713 18.4859756 18.6664072"></polygon>
                        <polygon id="Path" points="49.9953252 30.3603713 68.3447154 37.2438443 99.9172764 25.574515 81.5044715 18.6664072"></polygon>
                        <polygon id="Path" points="31.6902439 0.143532934 0.117682927 11.8130659 18.4859756 18.6664072 49.9953252 6.95635928"></polygon>
                    </g>
                    <polygon id="Path" fill="#FFE6B8" points="52.5001016 9 21 20.5079031 52.5001016 32 84 20.5079031"></polygon>
                    <g id="Group" fill="#4D3D36">
                        <path d="M102.612859,25.640339 L89.4068906,20.6875932 L102.65125,15.7501017 C103.463344,15.4474576 104.001422,14.6705085 104.000205,13.8030508 C103.998984,12.9355932 103.458672,12.1602712 102.645766,11.8598644 L71.0925313,0.201966102 C70.6279844,0.0305084746 70.1177344,0.0311186441 69.6542031,0.203389831 L51.9955313,6.77023729 L34.4233906,0.232677966 C33.9596563,0.0597966102 33.4492031,0.0595932203 32.9848594,0.231050847 L1.431625,11.8889492 C0.61871875,12.1893559 0.078609375,12.9642712 0.0771875,13.8319322 C0.075765625,14.6993898 0.61384375,15.476339 1.4259375,15.7791864 L14.5524844,20.6751864 L1.3528125,25.5642712 C0.5395,25.8656949 -2.29102529e-07,26.6424407 -2.29102529e-07,27.5107119 C-2.29102529e-07,28.3789831 0.54071875,29.155322 1.3544375,29.4559322 L18.4335938,35.7661017 L18.4335938,58.1943051 C18.4335938,59.0625763 18.9735,59.8389153 19.7868125,60.1399322 L51.2764688,71.7978305 C51.5094531,71.8840678 51.7527969,71.9265763 51.9947188,71.9265763 C52.2392813,71.9265763 52.4822188,71.8820339 52.7123594,71.7970169 L52.7131719,71.7980339 L84.2028281,60.140339 C85.0161406,59.839322 85.5560469,59.0629831 85.5560469,58.1947119 L85.5560469,35.827322 L102.602703,29.5291525 C103.414797,29.2289492 103.955109,28.4548475 103.957141,27.5882034 C103.959375,26.7213559 103.423531,25.9442034 102.612859,25.640339 Z M51.9953281,30.1519322 L26.4649531,20.6804746 L49.7211406,12.0404746 L49.7211406,19.6120678 C49.7211406,20.7577627 50.6488125,21.6864407 51.7928125,21.6864407 C52.9368125,21.6864407 53.8644844,20.7577627 53.8644844,19.6120678 L53.8644844,11.8901695 L77.5252969,20.6802712 L51.9953281,30.1519322 Z M70.3777344,4.36027119 L95.9674219,13.8148475 L83.4837656,18.4690169 L57.9485156,8.98271186 L70.3777344,4.36027119 Z M33.69925,4.38955932 L46.0431562,8.98189831 L20.5068906,18.4688136 L8.10875,13.844339 L33.69925,4.38955932 Z M20.5050625,22.8937627 L46.0277187,32.3623729 L33.6238906,36.9561356 L8.04964063,27.5074576 L20.5050625,22.8937627 Z M22.5773438,37.2972203 L32.9074687,41.1140339 C33.1388281,41.1994576 33.3817656,41.2421695 33.6247031,41.2421695 C33.8680469,41.2421695 34.1115937,41.1992542 34.3433594,41.1134237 L49.9234531,35.3432542 L49.9234531,66.8735593 L22.5773438,56.7496271 C22.5773438,56.7496271 22.5773438,37.2972203 22.5773438,37.2972203 Z M81.4133125,56.7494237 L54.067,66.8731525 L54.067,35.3558644 L69.6066719,41.1833898 C69.840875,41.2710508 70.0868594,41.3151864 70.33325,41.3151864 C70.5759844,41.3151864 70.819125,41.2724746 71.0504844,41.1870508 L81.4133125,37.3582373 L81.4133125,56.7494237 L81.4133125,56.7494237 L81.4133125,56.7494237 Z M70.3385313,37.0277288 L57.9300313,32.3745763 L83.4809219,22.8955932 L95.9408125,27.5684746 L70.3385313,37.0277288 Z" id="Shape"></path>
                        <path d="M51.7928125,23.3461017 C50.6488125,23.3461017 49.7211406,24.2747797 49.7211406,25.4204746 L49.7211406,25.8353898 C49.7211406,26.9810847 50.6488125,27.9097627 51.7928125,27.9097627 C52.9368125,27.9097627 53.8644844,26.9810847 53.8644844,25.8353898 L53.8644844,25.4204746 C53.8644844,24.2747797 52.9368125,23.3461017 51.7928125,23.3461017 Z" id="Path"></path>
                    </g>
                </g>
            </g>
        </g>
    </g>
</svg>