<?xml version="1.0" encoding="UTF-8"?>
<svg width="88px" height="140px" viewBox="0 0 88 140" version="1.1" xmlns="http://www.w3.org/2000/svg" xmlns:xlink="http://www.w3.org/1999/xlink">
    <!-- Generator: sketchtool 64 (101010) - https://sketch.com -->
    <title>7724A221-C749-4332-8EDE-18E7B45A90DD</title>
    <desc>Created with sketchtool.</desc>
    <defs>
        <linearGradient x1="49.9996711%" y1="10.8933333%" x2="49.9996711%" y2="85.666875%" id="linearGradient-1">
            <stop stop-color="#FC5C7D" offset="0%"></stop>
            <stop stop-color="#F35E85" offset="12.9%"></stop>
            <stop stop-color="#D9659B" offset="34.3%"></stop>
            <stop stop-color="#B070BF" offset="61.6%"></stop>
            <stop stop-color="#777FF0" offset="93.4%"></stop>
            <stop stop-color="#6A82FB" offset="100%"></stop>
        </linearGradient>
    </defs>
    <g id="Dump" stroke="none" stroke-width="1" fill="none" fill-rule="evenodd">
        <g id="Hero-Screen" transform="translate(-217.000000, -800.000000)" fill="url(#linearGradient-1)" fill-rule="nonzero">
            <g id="012-dress-5" transform="translate(217.000000, 800.000000)">
                <path d="M0.144487932,127.523083 C-0.265724047,128.639353 0.223761257,129.887797 1.28038162,130.420208 C2.05501248,130.8125 20.5645217,140 43.9997105,140 C67.4348994,140 85.9444086,130.8125 86.7196184,130.420208 C87.7762387,129.887797 88.265724,128.639353 87.8555121,127.523083 L64.8417965,64.9150833 L64.8417965,56 C64.8417965,50.7844167 65.7938746,47.6775833 66.8970578,44.079875 C68.1044514,40.1382917 69.4733712,35.6708333 69.4733712,28 C69.4733712,19.8426667 62.6565617,2.22775 62.3662199,1.48166667 C62.0184706,0.587940119 61.1629596,1.13686838e-13 60.2102218,1.13686838e-13 L53.2628599,1.13686838e-13 C52.0828152,1.13686838e-13 51.0915041,0.894070864 50.9612567,2.07579167 L50.3608889,7.518875 C49.4433668,15.8841963 47.2996553,24.0661698 43.9997105,31.7977917 C40.6997657,24.0661698 38.5560543,15.8841963 37.6385322,7.518875 L37.0381643,2.07579167 C36.9079169,0.894070864 35.9166059,1.13686838e-13 34.7365612,1.13686838e-13 L27.7891992,1.13686838e-13 C26.8364615,1.13686838e-13 25.9809505,0.587940119 25.6332012,1.48166667 C25.3428594,2.22775 18.5260499,19.8426667 18.5260499,28 C18.5260499,35.6708333 19.8949697,40.1382917 21.1023633,44.079875 C22.2049675,47.6775833 23.1576245,50.7844167 23.1576245,56 L23.1576245,64.9150833 L0.144487932,127.523083 Z M29.2755,5 L32.5783333,5 L32.9525417,8.36758333 C34.1203232,18.9323642 37.154251,29.2059653 41.913125,38.71025 C42.3084214,39.5006122 43.1162966,39.9998414 44,39.9998414 C44.8837034,39.9998414 45.6915786,39.5006122 46.086875,38.71025 C50.845749,29.2059653 53.8796768,18.9323642 55.0474583,8.36758333 L55.4216667,5 L58.7247917,5 C59.3769583,6.74183333 60.5039583,9.83845833 61.619875,13.3101667 C63.8312917,20.18825 65,25.383125 65,28.3333333 C65,35.3000833 63.7855,39.2332083 62.61125,43.0365417 C61.6458333,46.16175 60.6541667,49.3823333 60.3986667,54 L27.6013333,54 C27.34525,49.3823333 26.353875,46.16175 25.38875,43.0365417 C24.2145,39.2332083 23,35.3000833 23,28.3333333 C23,22.308375 27.6375,9.37645833 29.2755,5 Z M60,58 L60,63 L28,63 L28,58 L60,58 Z M26.9815852,68 L31.7962274,68 L25.4118464,97.9915172 L29.9678749,98.974 L36.5628164,68 L41.6689816,68 L41.6689816,86.7586207 L46.3286886,86.7586207 L46.3286886,68 L51.4348537,68 L58.0297952,98.974 L62.5858237,97.9915172 L56.2014427,68 L61.0172499,68 L83,127.734483 C77.7578297,130.014534 62.2549845,136 44,136 C25.7450155,136 10.2412967,130.014241 5,127.734483 L26.9815852,68 Z" id="Shape"></path>
            </g>
        </g>
    </g>
</svg>