<?xml version="1.0" encoding="UTF-8"?>
<svg width="60px" height="140px" viewBox="0 0 60 140" version="1.1" xmlns="http://www.w3.org/2000/svg" xmlns:xlink="http://www.w3.org/1999/xlink">
    <!-- Generator: sketchtool 64 (101010) - https://sketch.com -->
    <title>BFB79B65-F744-4613-B510-05F5874FBC9B</title>
    <desc>Created with sketchtool.</desc>
    <defs>
        <linearGradient x1="50%" y1="9.015625%" x2="50%" y2="91.3852083%" id="linearGradient-1">
            <stop stop-color="#FC5C7D" offset="0%"></stop>
            <stop stop-color="#F35E85" offset="12.9%"></stop>
            <stop stop-color="#D9659B" offset="34.3%"></stop>
            <stop stop-color="#B070BF" offset="61.6%"></stop>
            <stop stop-color="#777FF0" offset="93.4%"></stop>
            <stop stop-color="#6A82FB" offset="100%"></stop>
        </linearGradient>
        <linearGradient x1="50%" y1="70.46875%" x2="50%" y2="2541.55625%" id="linearGradient-2">
            <stop stop-color="#FC5C7D" offset="0%"></stop>
            <stop stop-color="#F35E85" offset="12.9%"></stop>
            <stop stop-color="#D9659B" offset="34.3%"></stop>
            <stop stop-color="#B070BF" offset="61.6%"></stop>
            <stop stop-color="#777FF0" offset="93.4%"></stop>
            <stop stop-color="#6A82FB" offset="100%"></stop>
        </linearGradient>
    </defs>
    <g id="Dump" stroke="none" stroke-width="1" fill="none" fill-rule="evenodd">
        <g id="Hero-Screen" transform="translate(-537.000000, -800.000000)" fill-rule="nonzero">
            <g id="007-leggings" transform="translate(537.000000, 800.000000)">
                <path d="M60,37.3333333 C60,20.9017083 55.5069231,2.541 55.3156731,1.7675 C55.0588815,0.728758756 54.1358573,0 53.0769231,0 L6.92307692,0 C5.86414272,0 4.94111847,0.728758756 4.68432692,1.7675 C4.49307692,2.541 0,20.9017083 0,37.3333333 C0,47.4454167 1.70192308,55.6873333 3.06836538,62.3099167 C3.89855769,66.3317083 4.61538462,69.804875 4.61538462,72.3333333 C4.61538462,75.4264583 4.125,79.1268333 3.60576923,83.0442083 C2.99769231,87.6370833 2.30769231,92.84275 2.30769231,98 C2.30769231,103.174167 3.61961538,112.104708 4.88855769,120.741542 C5.93480769,127.863458 6.92307692,134.590458 6.92307692,137.666667 C6.92307692,138.955331 7.95626596,140 9.23076923,140 L20.7692308,140 C21.9751024,140 22.9777378,139.061424 23.0702885,137.84575 C23.1634615,136.60325 25.3846154,107.342375 25.3846154,100.333333 C25.3846154,96.9791667 25.9615385,92.3069583 26.5205769,87.7893333 C27.0969231,83.1299583 27.6923077,78.3125 27.6923077,74.6666667 C27.6923077,68.854625 29.3301923,44.7416667 29.8321154,37.4899583 C29.8393621,37.40165 29.912362,37.3337098 30,37.3337098 C30.087638,37.3337098 30.1606379,37.40165 30.1678846,37.4899583 C30.6698077,44.7416667 32.3076923,68.854625 32.3076923,74.6666667 C32.3076923,78.3125 32.9030769,83.1299583 33.4794231,87.7893333 C34.0384615,92.3069583 34.6153846,96.9791667 34.6153846,100.333333 C34.6153846,107.342375 36.8365385,136.60325 36.9297115,137.84575 C37.0222622,139.061424 38.0248976,140 39.2307692,140 L50.7692308,140 C52.043734,140 53.0769231,138.955331 53.0769231,137.666667 C53.0769231,134.590458 54.0651923,127.863458 55.1114423,120.741542 C56.3803846,112.104708 57.6923077,103.174167 57.6923077,98 C57.6923077,92.84275 57.0023077,87.6370833 56.3942308,83.0442083 C55.875,79.1268333 55.3846154,75.4264583 55.3846154,72.3333333 C55.3846154,69.804875 56.1014423,66.3317083 56.9316346,62.3099167 C58.2980769,55.6873333 60,47.4454167 60,37.3333333 L60,37.3333333 Z M18.6297115,135.333333 L11.4351923,135.333333 C11.1576923,131.653667 10.3551923,126.191917 9.45375,120.055833 C9.05682692,117.352375 8.64201923,114.529042 8.26586538,111.786792 L19.875,117.658333 C19.4111538,124.709375 18.8878846,131.8625 18.6297115,135.333333 Z M20.1980769,112.603458 L7.55076923,106.207208 C7.19649479,103.484794 6.98696276,100.745119 6.92307692,98 C6.92307692,97.7054167 6.93230769,97.411125 6.93692308,97.1168333 L20.6636538,104.054125 C20.5624038,106.407 20.3956731,109.39075 20.1980769,112.603458 Z M50.54625,120.055833 C49.6448077,126.191917 48.8423077,131.653667 48.5648077,135.333333 L41.3702885,135.333333 C41.1121154,131.8625 40.5888462,124.709375 40.1244231,117.658333 L51.7341346,111.787083 C51.3579808,114.529042 50.9423077,117.352375 50.54625,120.055833 Z M52.4500962,106.207208 L39.8027885,112.603458 C39.6051923,109.39075 39.4384615,106.407 39.3372115,104.054125 L53.0639423,97.1168333 C53.0685577,97.411125 53.0777885,97.7054167 53.0777885,98 C53.0136156,100.745135 52.8037947,103.48481 52.4492308,106.207208 L52.4500962,106.207208 Z M52.4134615,61.35675 C51.5313462,65.631125 50.7692308,69.3230417 50.7692308,72.3333333 C50.7692308,75.7376667 51.2795192,79.5876667 51.8195192,83.6637083 C52.1832692,86.4082917 52.5507692,89.2085833 52.7945192,92.0345417 L39.2036538,98.9041667 C39.0810577,95.4779583 38.5626923,91.2837917 38.0590385,87.2106667 C37.5,82.6930417 36.9230769,78.0208333 36.9230769,74.6666667 C36.9230769,68.70325 35.2765385,44.454375 34.7720192,37.1641667 C34.5955203,34.6309509 32.5115875,32.6670812 30,32.6670812 C27.4884125,32.6670812 25.4044797,34.6309509 25.2279808,37.1641667 C24.7234615,44.454375 23.0769231,68.70325 23.0769231,74.6666667 C23.0769231,78.0208333 22.5,82.6930417 21.9409615,87.2106667 C21.4373077,91.2837917 20.9189423,95.4779583 20.7963462,98.9041667 L7.20548077,92.035125 C7.44923077,89.2085833 7.81673077,86.4082917 8.18048077,83.6642917 C8.72048077,79.5876667 9.23076923,75.7376667 9.23076923,72.3333333 C9.23076923,69.3230417 8.46865385,65.631125 7.58653846,61.35675 C6.26278846,54.9441667 4.61538462,46.9635833 4.61538462,37.3333333 C4.61538462,24.3559167 7.63442308,9.66233333 8.7525,4.66666667 L51.2477885,4.66666667 C52.3661538,9.65970833 55.3846154,24.343375 55.3846154,37.3333333 C55.3846154,46.9635833 53.7372115,54.9441667 52.4134615,61.35675 Z" id="Shape" fill="url(#linearGradient-1)"></path>
                <polygon id="Path" fill="url(#linearGradient-2)" points="43 9 48 9 48 14 43 14"></polygon>
            </g>
        </g>
    </g>
</svg>