<?xml version="1.0" encoding="UTF-8"?>
<svg width="98px" height="140px" viewBox="0 0 98 140" version="1.1" xmlns="http://www.w3.org/2000/svg" xmlns:xlink="http://www.w3.org/1999/xlink">
    <!-- Generator: sketchtool 64 (101010) - https://sketch.com -->
    <title>C1D87A31-1F1A-4662-A645-ABDB7572BB8A</title>
    <desc>Created with sketchtool.</desc>
    <defs>
        <linearGradient x1="50.0001081%" y1="12.047418%" x2="50.0001081%" y2="86.7056692%" id="linearGradient-1">
            <stop stop-color="#FC5C7D" offset="0%"></stop>
            <stop stop-color="#F35E85" offset="12.9%"></stop>
            <stop stop-color="#D9659B" offset="34.3%"></stop>
            <stop stop-color="#B070BF" offset="61.6%"></stop>
            <stop stop-color="#777FF0" offset="93.4%"></stop>
            <stop stop-color="#6A82FB" offset="100%"></stop>
        </linearGradient>
    </defs>
    <g id="Dump" stroke="none" stroke-width="1" fill="none" fill-rule="evenodd">
        <g id="Hero-Screen" transform="translate(-824.000000, -800.000000)" fill="url(#linearGradient-1)" fill-rule="nonzero">
            <g id="011-dress-4" transform="translate(824.000000, 800.000000)">
                <path d="M89.3832572,5.87312064 L76.6047937,0.208579701 C75.5991536,-0.237664019 74.4182551,0.0490954784 73.7308495,0.906464179 C73.6400934,1.01810156 64.5965473,12.070202 48.9988958,12.070202 C33.4904879,12.070202 24.3537655,1.01417916 24.2669421,0.906464179 C23.5795366,0.0490954784 22.398638,-0.237664019 21.3929979,0.208579701 L8.6145344,5.87312064 C2.33983819,8.67941053 -1.11524355,15.4774143 0.324566716,22.1839451 L10.2194053,67.5808325 L5.49464108,88.7871069 C5.35347544,89.4207414 5.47412833,90.0843781 5.82936921,90.6282385 C6.18461009,91.1720989 6.74449842,91.5503452 7.38267116,91.6776098 L17.1238294,93.6204019 C15.9899828,99.9366638 15.1178163,106.69676 15.1178163,113.448407 L15.1178163,137.586219 C15.1178163,138.919313 16.2013605,140 17.5379799,140 L80.4622319,140 C81.7988513,140 82.8823954,138.919313 82.8823954,137.586219 L82.8823954,113.448407 C82.8823954,106.69676 82.010229,99.9366638 80.8772899,93.6204019 L90.6184482,91.6776098 C91.2566209,91.5503452 91.8165092,91.1720989 92.1717501,90.6282385 C92.526991,90.0843781 92.6476439,89.4207414 92.5064783,88.7871069 L87.7814115,67.5808325 L97.6756451,22.1839451 C99.1150988,15.4767997 95.6589022,8.67858697 89.3832572,5.87312064 Z M92.9457379,21.1586915 L82.9377567,67.0736367 C82.8632565,67.4150898 82.863979,67.768605 82.9398743,68.1097523 L87.2441352,87.4269412 L79.9694261,88.8779254 C79.406133,86.0981547 78.8198484,83.4333403 78.2707738,80.9359819 C76.8495328,74.4830397 75.6219048,68.9102225 75.6219048,65.1727841 C75.6219048,60.6683667 77.4240191,54.0781407 79.1668394,47.7030429 C80.9934578,41.0244122 82.8823954,34.116774 82.8823954,28.9660667 L78.0420684,28.9660667 C78.0420684,33.4704841 76.2399541,40.0607101 74.4971338,46.4358078 C72.6705154,53.1144386 70.7815777,60.0220768 70.7815777,65.1727841 C70.7815777,69.434013 72.0612392,75.244286 73.5429843,81.9720975 C75.5474848,91.0726559 78.0420684,102.398721 78.0420684,113.448407 L78.0420684,135.172438 L19.9581434,135.172438 L19.9581434,113.448407 C19.9581434,102.398721 22.452727,91.0726559 24.4572274,81.9720975 C25.9389726,75.244286 27.218634,69.434013 27.218634,65.1727841 C27.218634,60.0220768 25.3296964,53.1144386 23.503078,46.4358078 C21.7602577,40.0607101 19.9581434,33.4704841 19.9581434,28.9660667 L15.1178163,28.9660667 C15.1178163,34.116774 17.006754,41.0244122 18.8333724,47.7030429 C20.5761927,54.0781407 22.378307,60.6683667 22.378307,65.1727841 C22.378307,68.9102225 21.150679,74.4830397 19.729438,80.9362837 C19.1794558,83.433642 18.5940788,86.0984564 18.0307857,88.8782271 L10.7560766,87.4272429 L15.0603375,68.110054 C15.1362328,67.7689067 15.1369553,67.4153916 15.0624551,67.0739385 L5.05447383,21.1586915 C4.09505681,16.6872372 6.39910688,12.1551709 10.5827324,10.2846074 L21.7578375,5.33092504 C25.0320163,8.70508938 34.4791247,16.8971609 49.0001059,16.8971609 C63.5210871,16.8971609 72.9681955,8.70508938 76.2423742,5.33092504 L87.4174794,10.2846074 C91.6011049,12.1551709 93.905155,16.6872372 92.9457379,21.1586915 L92.9457379,21.1586915 Z" id="Shape"></path>
            </g>
        </g>
    </g>
</svg>