<?xml version="1.0" encoding="UTF-8"?>
<svg width="151px" height="120px" viewBox="0 0 151 120" version="1.1" xmlns="http://www.w3.org/2000/svg" xmlns:xlink="http://www.w3.org/1999/xlink">
    <!-- Generator: sketchtool 64 (101010) - https://sketch.com -->
    <title>1A1D5C25-8565-4133-BE14-70A0D9387BB9</title>
    <desc>Created with sketchtool.</desc>
    <defs>
        <linearGradient x1="50.0001821%" y1="-1.73802083%" x2="50.0001821%" y2="98.0255208%" id="linearGradient-1">
            <stop stop-color="#FC5C7D" offset="0%"></stop>
            <stop stop-color="#F35E85" offset="12.9%"></stop>
            <stop stop-color="#D9659B" offset="34.3%"></stop>
            <stop stop-color="#B070BF" offset="61.6%"></stop>
            <stop stop-color="#777FF0" offset="93.4%"></stop>
            <stop stop-color="#6A82FB" offset="100%"></stop>
        </linearGradient>
    </defs>
    <g id="Dump" stroke="none" stroke-width="1" fill="none" fill-rule="evenodd">
        <g id="Hero-Screen" transform="translate(-1104.000000, -810.000000)" fill="url(#linearGradient-1)" fill-rule="nonzero">
            <g id="005-mini-skirt" transform="translate(1104.000000, 810.000000)">
                <path d="M150.801218,79.0259375 L123.316789,14.4925 L123.316789,2.5 C123.316789,1.11928813 122.190043,1.13686838e-13 120.800131,1.13686838e-13 L30.2004195,1.13686838e-13 C28.8105073,1.13686838e-13 27.6837608,1.11928813 27.6837608,2.5 L27.6837608,14.4925 L0.199331823,79.0259375 C-0.31800362,80.2408346 0.203897083,81.6459739 1.39159885,82.2359375 L19.1205152,91.041875 L17.6882219,96.9109375 C17.5289282,97.5634021 17.6405089,98.2520927 17.9978427,98.8219586 C18.3551766,99.3918245 18.9282292,99.7949676 19.5879846,99.940625 L40.8222918,104.628125 L40.2808957,109.738125 C40.1373406,111.092436 41.1113552,112.311759 42.471647,112.480625 L60.5337061,114.723438 L60.403469,117.379688 C60.3703379,118.062775 60.6203508,118.729526 61.0952688,119.224623 C61.5701867,119.71972 62.2285445,120 62.9169818,120 L88.0835682,120 C88.7722923,120 89.430907,119.719528 89.9058743,119.224084 C90.3808416,118.72864 90.6306563,118.061477 90.597081,117.378125 L90.4668439,114.721875 L108.528903,112.479063 C109.889195,112.310197 110.863209,111.090873 110.719654,109.736563 L110.178258,104.626563 L131.412565,99.9390625 C132.072321,99.7934051 132.645373,99.390262 133.002707,98.8203961 C133.360041,98.2505302 133.471622,97.5618396 133.312328,96.909375 L131.880035,91.0403125 L149.608951,82.234375 C150.795811,81.6444704 151.317565,80.2404085 150.801218,79.0259375 Z M105.700179,5 L118.283472,5 L118.283472,12.5 L105.700179,12.5 L105.700179,5 Z M95.6335441,5 L100.666861,5 L100.666861,12.5 L95.6335441,12.5 L95.6335441,5 Z M60.4003232,5 L90.6002268,5 L90.6002268,12.5 L60.4003232,12.5 L60.4003232,5 Z M50.3336886,5 L55.3670059,5 L55.3670059,12.5 L50.3336886,12.5 L50.3336886,5 Z M32.7170781,5 L45.3003713,5 L45.3003713,12.5 L32.7170781,12.5 L32.7170781,5 Z M5.75517035,78.8125 L31.8677058,17.5 L37.066808,17.5 L20.3370051,86.0559375 L5.75517035,78.8125 Z M41.3526777,99.6225 L23.1852335,95.6125 L42.2464061,17.5 L50.0549687,17.5 L41.3526777,99.6225 Z M60.7797094,109.714375 L45.5448018,107.822813 L55.11534,17.5 L65.3078075,17.5 L60.7797094,109.714375 Z M65.5594734,115 L70.3474164,17.5 L80.6537627,17.5 L85.4410766,115 L65.5594734,115 Z M90.2211551,109.715 L85.6927425,17.5 L95.88521,17.5 L105.456377,107.823438 L90.2211551,109.715 Z M109.648187,99.623125 L100.945581,17.5 L108.754144,17.5 L127.817833,95.6125 L109.648187,99.623125 Z M130.663859,86.0559375 L113.933113,17.5 L119.132844,17.5 L145.246009,78.8125 L130.663859,86.0559375 Z" id="Shape"></path>
            </g>
        </g>
    </g>
</svg>