<?xml version="1.0" encoding="UTF-8"?>
<svg width="53px" height="64px" viewBox="0 0 53 64" version="1.1" xmlns="http://www.w3.org/2000/svg" xmlns:xlink="http://www.w3.org/1999/xlink">
    <!-- Generator: sketchtool 64 (101010) - https://sketch.com -->
    <title>36A1D718-7C5B-4D4D-9715-E29339ABBFB8</title>
    <desc>Created with sketchtool.</desc>
    <defs>
        <linearGradient x1="50%" y1="9.01562787%" x2="50%" y2="91.3852086%" id="linearGradient-1">
            <stop stop-color="#FC5C7D" offset="0%"></stop>
            <stop stop-color="#F35E85" offset="12.9%"></stop>
            <stop stop-color="#D9659B" offset="34.3%"></stop>
            <stop stop-color="#B070BF" offset="61.6%"></stop>
            <stop stop-color="#777FF0" offset="93.4%"></stop>
            <stop stop-color="#6A82FB" offset="100%"></stop>
        </linearGradient>
        <linearGradient x1="371.004004%" y1="41.2013281%" x2="-29.7117574%" y2="52.1847953%" id="linearGradient-2">
            <stop stop-color="#FC5C7D" offset="0%"></stop>
            <stop stop-color="#F35E85" offset="12.9%"></stop>
            <stop stop-color="#D9659B" offset="34.3%"></stop>
            <stop stop-color="#B070BF" offset="61.6%"></stop>
            <stop stop-color="#777FF0" offset="93.4%"></stop>
            <stop stop-color="#6A82FB" offset="100%"></stop>
        </linearGradient>
        <linearGradient x1="58.7971446%" y1="-271.007711%" x2="47.8160072%" y2="129.710382%" id="linearGradient-3">
            <stop stop-color="#FC5C7D" offset="0%"></stop>
            <stop stop-color="#F35E85" offset="12.9%"></stop>
            <stop stop-color="#D9659B" offset="34.3%"></stop>
            <stop stop-color="#B070BF" offset="61.6%"></stop>
            <stop stop-color="#777FF0" offset="93.4%"></stop>
            <stop stop-color="#6A82FB" offset="100%"></stop>
        </linearGradient>
    </defs>
    <g id="Dump" stroke="none" stroke-width="1" fill="none" fill-rule="evenodd">
        <g id="Mobile-resp" transform="translate(-154.000000, -737.000000)" fill-rule="nonzero">
            <g id="010-jacket" transform="translate(154.000000, 737.000000)">
                <path d="M1.99601096,16.5873348 L0.00109348502,60.7516001 C-0.0124232397,61.0510136 0.0998661915,61.3423347 0.310480594,61.5542667 L2.43047792,63.6876 C2.62927412,63.8876364 2.89889642,64 3.18002947,64 L49.8199705,64 C50.1011036,64 50.3707259,63.8876364 50.5695221,63.6876 L52.6895194,61.5542667 C52.9001338,61.3423347 53.0124232,61.0510136 52.9989065,60.7516001 L51.003989,16.5873348 C50.9088115,14.5046115 49.8124225,12.5987686 48.0650102,11.478535 L39.1917615,5.79640184 C38.9404565,3.03377869 36.9794708,0.733701378 34.3042401,0.0637353501 L34.1775703,0.0318686844 C34.0933424,0.0106112832 34.0068271,0 33.9199906,0 L33.9199906,0 L19.0800094,0 L19.0800094,0 C18.993411,0 18.9071218,0.0104005297 18.8230922,0.0314686844 L18.6962899,0.0633353501 C16.0206376,0.733188541 14.0593473,3.03364122 13.8082385,5.7966685 L4.93498975,11.478535 C3.18757747,12.5987686 2.09118847,14.5046115 1.99601096,16.5873348 Z M3.61900141,61.8666667 L2.14017078,60.3784001 L2.31387806,56.5333336 L10.6000201,56.5333336 L10.6000201,58.6666668 C10.5999985,58.7538694 10.6106341,58.8407436 10.6316876,58.9253335 L11.3624241,61.8666667 L3.61900141,61.8666667 Z M25.4400013,61.8666667 L13.5476114,61.8666667 L13.017612,59.7333335 L25.4400013,59.7333335 L25.4400013,61.8666667 Z M39.4523886,61.8666667 L27.5599987,61.8666667 L27.5599987,59.7333335 L39.982388,59.7333335 L39.4523886,61.8666667 Z M26.5,13.6149349 L22.9150845,6.40000182 L30.0849155,6.40000182 L26.5,13.6149349 Z M50.8598292,60.3784001 L49.3809986,61.8666667 L41.6375759,61.8666667 L42.3683124,58.9253335 C42.3893659,58.8407436 42.4000015,58.7538694 42.3999799,58.6666668 L42.3999799,56.5333336 L50.6861219,56.5333336 L50.8598292,60.3784001 Z M38.39345,7.81333511 L46.9264392,13.2777349 C48.0913338,14.0246407 48.8221896,15.2952449 48.8855817,16.6837348 L50.5897946,54.4000003 L42.3999799,54.4000003 L42.3999799,28.9170678 L44.4948023,19.4313347 L42.4251549,18.9686681 L41.1354015,24.8093346 L40.2255252,22.062668 L38.2144427,22.7373346 L40.2799826,28.9733344 L40.2799826,57.6000002 L27.5599987,57.6000002 L27.5599987,17.2948015 C27.7093701,17.306357 27.8585649,17.3122237 28.0075831,17.3124015 C28.5738791,17.3116065 29.1371173,17.228848 29.679996,17.0666681 L29.679996,28.8000011 L31.7999933,28.8000011 L31.7999933,15.9221348 C32.0934963,15.6749825 32.3620494,15.3992915 32.6017498,15.0990682 L38.39345,7.81333511 Z M34.4616499,2.36146861 C35.9465053,3.00504999 36.9560546,4.42202515 37.0851466,6.04373516 L30.9456344,13.7664016 C30.2488074,14.6385384 29.2042159,15.1557237 28.092383,15.1790682 L34.4616499,2.36146861 Z M32.2049128,2.13333528 L31.1449141,4.26666855 L21.8550859,4.26666855 L20.7950872,2.13333528 L32.2049128,2.13333528 Z M18.5383501,2.36146861 L24.9069545,15.1790682 C23.7951615,15.1555591 22.7506353,14.6384062 22.0537031,13.7664016 L15.9141909,6.04373516 C16.0432612,4.42181854 17.0531404,3.00473821 18.5383501,2.36146861 Z M6.07303081,13.2782683 L14.60602,7.81386844 L20.3977202,15.0990682 C20.6375877,15.3993172 20.9063192,15.6750092 21.2000067,15.9221348 L21.2000067,28.8000011 L23.320004,28.8000011 L23.320004,17.0673348 C23.8629277,17.2292329 24.4261572,17.3117656 24.9924169,17.3124015 C25.1413467,17.3124015 25.2905415,17.3065348 25.4400013,17.2948015 L25.4400013,57.6000002 L12.7200174,57.6000002 L12.7200174,28.9733344 L14.7855573,22.7376013 L12.7744748,22.0629347 L11.8645985,24.8096012 L10.5748451,18.9689348 L8.50519774,19.4316014 L10.6000201,28.9170678 L10.6000201,54.4000003 L2.41020544,54.4000003 L4.11388829,16.6842682 C4.17728039,15.2957782 4.90813618,14.025174 6.07303081,13.2782683 Z" id="Shape" fill="url(#linearGradient-1)"></path>
                <polygon id="Rectangle" fill="url(#linearGradient-2)" transform="translate(18.019928, 47.999889) rotate(-80.536000) translate(-18.019928, -47.999889) " points="11.533839 46.9462863 24.5081795 46.9331321 24.506017 49.0534926 11.5316764 49.0666468"></polygon>
                <polygon id="Rectangle" fill="url(#linearGradient-3)" transform="translate(34.979773, 48.000342) rotate(-9.462000) translate(-34.979773, -48.000342) " points="33.9261683 41.5142519 36.0465287 41.5120898 36.0333772 54.4864313 33.9130169 54.4885934"></polygon>
            </g>
        </g>
    </g>
</svg>