<?xml version="1.0" encoding="UTF-8"?>
<svg width="362px" height="82px" viewBox="0 0 362 82" version="1.1" xmlns="http://www.w3.org/2000/svg" xmlns:xlink="http://www.w3.org/1999/xlink">
    <!-- Generator: sketchtool 64 (101010) - https://sketch.com -->
    <title>05D78B0D-71D1-40E3-AC5E-114923596A7D</title>
    <desc>Created with sketchtool.</desc>
    <g id="Dump" stroke="none" stroke-width="1" fill="none" fill-rule="evenodd">
        <g id="Hero-Screen" transform="translate(-540.000000, -171.000000)" fill="#212A39" fill-rule="nonzero" stroke="#212A39" stroke-width="1.2">
            <g id="NUTAAN-2-Copy-2" transform="translate(540.000000, 173.000000)">
                <path d="M58.0488636,78 L58.0488636,4.69879518 L48.2256993,4.69879518 L48.2256993,52.7160069 L0.754098361,0 L0.754098361,73.7934596 L10.5772627,73.7934596 L10.5772627,25.4182444 L58.0488636,78 Z M97.7209563,75.0464716 C104.719434,75.0464716 110.621764,72.421113 115.427948,67.1703959 C119.700111,62.4566839 121.836192,56.4601262 121.836192,49.1807229 L121.836192,49.1807229 L121.836192,4.69879518 L112.013028,4.69879518 L112.013028,46.3166954 C112.013028,52.3430866 111.099572,56.6838784 109.27266,59.3390706 C106.546346,63.3069421 102.695778,65.2908778 97.7209563,65.2908778 C92.7742412,65.2908778 88.9377264,63.3069421 86.2114119,59.3390706 C84.3845,56.5943775 83.4710441,52.2535858 83.4710441,46.3166954 L83.4710441,46.3166954 L83.4710441,4.69879518 L73.6478798,4.69879518 L73.6478798,49.1807229 C73.6478798,56.4601262 75.7839613,62.4566839 80.0561244,67.1703959 C84.8342014,72.421113 90.7224787,75.0464716 97.7209563,75.0464716 Z M155.395157,73.7934596 L155.395157,14.4991394 L170.319621,14.4991394 L170.319621,4.69879518 L130.605369,4.69879518 L130.605369,14.4991394 L145.571993,14.4991394 L145.571993,73.7934596 L155.395157,73.7934596 Z M178.667203,73.7934596 L185.918638,57.0120482 L213.786069,57.0120482 L220.615909,73.7934596 L231.366582,73.7934596 L200.295028,0.358003442 L168.085168,73.7934596 L178.667203,73.7934596 Z M209.780916,47.211704 L190.008109,47.211704 L200.12639,23.7177281 L209.780916,47.211704 Z M242.62317,73.7934596 L249.874604,57.0120482 L277.742036,57.0120482 L284.571876,73.7934596 L295.322549,73.7934596 L264.250995,0.358003442 L232.041134,73.7934596 L242.62317,73.7934596 Z M273.736883,47.211704 L253.964076,47.211704 L264.082357,23.7177281 L273.736883,47.211704 Z M360.754098,78 L360.754098,4.69879518 L350.930934,4.69879518 L350.930934,52.7160069 L303.459333,0 L303.459333,73.7934596 L313.282497,73.7934596 L313.282497,25.4182444 L360.754098,78 Z" id="NUTAAN"></path>
            </g>
        </g>
    </g>
</svg>