<?xml version="1.0" encoding="UTF-8"?>
<svg width="80px" height="80px" viewBox="0 0 80 80" version="1.1" xmlns="http://www.w3.org/2000/svg" xmlns:xlink="http://www.w3.org/1999/xlink">
    <!-- Generator: sketchtool 64 (101010) - https://sketch.com -->
    <title>14467C57-BFE9-4433-A9B8-DEB30F2B6E1C</title>
    <desc>Created with sketchtool.</desc>
    <g id="Dump" stroke="none" stroke-width="1" fill="none" fill-rule="evenodd">
        <g id="Hero-Screen" transform="translate(-209.000000, -5345.000000)" fill-rule="nonzero">
            <g id="Support-footer" transform="translate(0.000000, 5291.000000)">
                <g id="phone" transform="translate(209.000000, 54.000000)">
                    <path d="M30.9707869,23.2090908 L30.9707869,23.2090908 C31.3344313,21.9352885 30.9794301,20.5642757 30.0436036,19.6274065 L13.2784013,2.84634269 C12.2677715,1.83475677 10.75992,1.50789072 9.42163313,2.01014447 L8.99465737,2.17043152 C8.47464899,2.36579612 8.00335701,2.67520205 7.62384047,3.08087459 C7.13133328,3.6070377 6.6647558,4.14845874 6.22222222,4.70293556 L28.1651931,26.6666667 L30.0437607,24.7863217 C30.4815798,24.3480884 30.8007509,23.8052517 30.9707869,23.2090908 Z" id="Path" fill="#FFAD61"></path>
                    <path d="M53.2772483,51.6067461 L51.9729514,52.4770552 C49.4142591,54.1844579 46.0599519,54.090893 43.5929533,52.2537471 C37.3058494,47.5716057 31.7638353,41.9669148 27.154197,35.6314824 C25.0503867,32.7398606 25.3605549,28.7472922 27.8891505,26.2187019 L27.8891505,26.2187019 L6.11469103,4.44444444 C-2.19435362,14.8468293 2.35633874,26.1658378 11.9915121,35.8009908 L44.1989429,68.0085095 C53.8341163,77.6436625 65.1531488,82.1943452 75.5555556,73.8853181 L53.2772483,51.6067461 Z" id="Path" fill="#FFE6B8"></path>
                    <path d="M77.8374284,71.0054849 L77.9945069,70.5785068 C78.4867068,69.2403699 78.1663838,67.7323532 77.1750472,66.721718 L60.7298973,49.9564256 C59.8117818,49.020437 58.4682132,48.665591 57.2199091,49.0292374 L56.8665981,49.132171 C56.5105123,49.2358904 56.1724621,49.3953982 55.864471,49.6048799 L53.3333333,51.3267785 L75.3556186,73.7777778 C75.8989962,73.3352418 76.4295794,72.8686618 76.9452101,72.376152 C77.3429162,71.9966334 77.6462828,71.5254961 77.8374284,71.0054849 Z" id="Path" fill="#FFAD61"></path>
                    <g id="Group" fill="#4D3D36">
                        <path d="M78.4732812,65.9332812 L61.8040625,49.2639062 C60.465,47.925 58.5014062,47.41625 56.6810937,47.9365625 L56.3235937,48.03875 C55.8029687,48.1875 55.3107812,48.4151562 54.8604687,48.715625 L52.2946875,50.4276562 C52.2940625,50.428125 52.2934375,50.4285937 52.2928125,50.4290625 L50.9876562,51.2998437 C48.993125,52.6307812 46.356875,52.56 44.4279687,51.1235937 C38.2523437,46.524375 32.8239062,41.0353125 28.2935937,34.8090625 C26.63625,32.5309375 26.8778125,29.4334375 28.8676562,27.4429687 C28.8678125,27.4428125 28.868125,27.4426562 28.8682812,27.4425 L30.7360937,25.5745312 C31.3614063,24.9490625 31.8204687,24.1690625 32.0634375,23.3185937 C32.58375,21.4979687 32.075,19.5351562 30.7359375,18.1959375 L14.0667187,1.52671875 C12.6234375,0.0834375 10.4560937,-0.385625 8.54515625,0.33078125 L8.12109375,0.48984375 C7.37265625,0.7703125 6.69265625,1.2225 6.15421875,1.796875 C5.645625,2.33984375 5.14890625,2.91390625 4.6784375,3.503125 C-3.20625,13.3740625 -1.073125,25.285625 10.685,37.04375 L42.95625,69.3148437 C50.0510937,76.4095312 57.2014062,79.9999988 63.9259375,79.9999988 C68.3457812,79.9999988 72.5821875,78.44875 76.496875,75.3215625 C76.4970312,75.3214062 76.4971875,75.3214062 76.4971875,75.32125 C77.0867187,74.85 77.660625,74.35375 78.203125,73.845625 C78.7776562,73.3071875 79.2295312,72.6271875 79.51,71.879375 L79.6692187,71.4545312 C80.385625,69.5435937 79.91625,67.3764062 78.4732812,65.9332812 Z M56.63,51.3673437 C56.8051562,51.2504687 56.9964062,51.1620312 57.1992187,51.1040625 L57.5570312,51.0017187 C58.2651562,50.7990625 59.02875,50.9971875 59.5496875,51.518125 L76.2189062,68.1873437 C76.7801562,68.7485937 76.9628125,69.5917187 76.6842187,70.3348438 L76.525,70.759375 C76.525,70.7595312 76.525,70.7596875 76.5248437,70.7598437 C76.4154687,71.0515625 76.2421875,71.3142187 76.0234375,71.5192187 C75.8823437,71.6514062 75.7389062,71.7826562 75.5932812,71.9129687 L55.6809375,52.0007812 L56.63,51.3673437 Z M8.48078125,3.9765625 C8.68578125,3.75765625 8.94828125,3.58421875 9.2403125,3.475 L9.66484375,3.31578125 C10.4084375,3.03734375 11.25125,3.2196875 11.8125,3.78109375 L28.4817187,20.4503125 C29.0026562,20.97125 29.2004687,21.7346875 28.998125,22.4429688 C28.9035937,22.77375 28.7251562,23.0771875 28.4817187,23.320625 L27.7410937,24.06125 L8.086875,4.406875 C8.2171875,4.26125 8.34859375,4.1178125 8.48078125,3.9765625 Z M25.5867187,26.415 C23.4592187,29.4715625 23.4496875,33.569375 25.7159375,36.6845313 C30.4353125,43.1707812 36.0904687,48.8890625 42.5240625,53.6803125 C45.53125,55.9198437 49.64375,56.0292188 52.7573437,53.9515625 L52.976875,53.805 L73.0632812,73.8914063 C62.7176562,80.8410938 52.2796875,74.1295313 45.210625,67.0603125 L12.939375,34.789375 C5.87015625,27.7203125 -0.84109375,17.2820313 6.10828125,6.93671875 L25.5867187,26.415 Z" id="Shape"></path>
                        <path d="M39.568125,20.6567187 C50.506875,20.6567187 59.40625,29.5559375 59.40625,40.4948438 C59.40625,41.375 60.12,42.08875 61.0001563,42.08875 C61.8803125,42.08875 62.5940625,41.375 62.5940625,40.4948438 C62.5940625,27.7982813 52.2646875,17.4689062 39.568125,17.4689062 C38.6878125,17.4689062 37.9742188,18.1826563 37.9742188,19.0628125 C37.9742188,19.9429687 38.6878125,20.6567187 39.568125,20.6567187 Z" id="Path"></path>
                        <path d="M70.190625,39.5765625 C70.1996875,39.88375 70.2042188,40.1925 70.2042188,40.4946875 C70.2042188,41.3748437 70.9179688,42.0885937 71.798125,42.0885937 C72.6782813,42.0885937 73.3920313,41.3748437 73.3920313,40.4946875 C73.3920313,40.1617187 73.3870313,39.8215625 73.3771875,39.48375 C73.3515625,38.60375 72.6146875,37.9090625 71.7375,37.936875 C70.8576563,37.9625 70.165,38.6965625 70.190625,39.5765625 Z" id="Path"></path>
                        <path d="M39.568125,9.85890625 C54.15625,9.85890625 66.7953125,20.2284375 69.62125,34.5154687 C69.77125,35.2746875 70.4375,35.8004688 71.183125,35.8004688 C71.285625,35.8004688 71.3896875,35.7904687 71.4940625,35.7698437 C72.3576563,35.5990625 72.9192187,34.7604688 72.7482813,33.896875 C69.6282813,18.1210938 55.6739063,6.67109375 39.568125,6.67109375 C38.6878125,6.67109375 37.9742188,7.38484375 37.9742188,8.265 C37.9742188,9.14515625 38.6878125,9.85890625 39.568125,9.85890625 Z" id="Path"></path>
                    </g>
                </g>
            </g>
        </g>
    </g>
</svg>