<?xml version="1.0" encoding="UTF-8"?>
<svg width="544px" height="482px" viewBox="0 0 544 482" version="1.1" xmlns="http://www.w3.org/2000/svg" xmlns:xlink="http://www.w3.org/1999/xlink">
    <!-- Generator: sketchtool 64 (101010) - https://sketch.com -->
    <title>D5BA7BF4-3265-4DA5-9777-4DE7FC827C3A</title>
    <desc>Created with sketchtool.</desc>
    <defs>
        <linearGradient x1="50%" y1="99.9980297%" x2="50%" y2="0.0111575578%" id="linearGradient-1">
            <stop stop-color="#808080" stop-opacity="0.25" offset="0%"></stop>
            <stop stop-color="#808080" stop-opacity="0.12" offset="54%"></stop>
            <stop stop-color="#808080" stop-opacity="0.1" offset="100%"></stop>
        </linearGradient>
    </defs>
    <g id="Dump" stroke="none" stroke-width="1" fill="none" fill-rule="evenodd" opacity="0.795596168">
        <g id="Hero-Screen" transform="translate(-156.000000, -1466.000000)">
            <g id="Group-12" transform="translate(0.000000, 1120.000000)">
                <g id="shopping-spree" transform="translate(428.000000, 587.000000) scale(-1, 1) translate(-428.000000, -587.000000) translate(156.000000, 346.000000)">
                    <rect id="Rectangle" fill="#6C63FF" fill-rule="nonzero" opacity="0.1" x="87" y="52" width="53" height="19" rx="5.17"></rect>
                    <rect id="Rectangle" fill="#6C63FF" fill-rule="nonzero" opacity="0.1" x="245" y="36" width="53" height="19" rx="5.17"></rect>
                    <rect id="Rectangle" fill="#6C63FF" fill-rule="nonzero" opacity="0.1" x="215" y="240" width="53" height="19" rx="5.17"></rect>
                    <rect id="Rectangle" fill="#6C63FF" fill-rule="nonzero" opacity="0.1" x="240" y="262" width="53" height="19" rx="5.17"></rect>
                    <rect id="Rectangle" fill="#6C63FF" fill-rule="nonzero" opacity="0.1" x="383" y="250" width="53" height="19" rx="5.17"></rect>
                    <rect id="Rectangle" fill="#6C63FF" fill-rule="nonzero" opacity="0.1" x="199" y="282" width="53" height="19" rx="5.17"></rect>
                    <path d="M345,121.57182 L320.533398,50.5984557 L311.737168,51.9322908 L303.861939,52.9393363 C304.062156,50.2716661 304.4092,40.6947302 299.523889,35.6728411 C299.05004,33.9521939 297.802016,31.9981255 295.399404,29.7972976 C283.693343,19.0732635 281.257361,41.0081815 281.257361,41.0081815 C281.257361,41.0081815 278.587792,45.6365892 274.910461,52.1056894 L272.981697,51.7388847 L272.434435,56.5140143 C264.292249,70.8994257 253.47382,90.3667487 253.47382,92.1941028 C253.47382,95.1218708 252.012231,99.0166692 252.012231,99.0166692 C252.012231,99.0166692 243.723218,112.661802 240.793366,119.491038 C239.087817,123.519938 236.591559,127.166416 233.452051,130.215072 C233.452051,130.215072 232.744615,130.755275 231.583352,131.548907 C231.657293,130.257974 231.881262,128.980019 232.250745,127.740808 C233.318572,124.252829 235.801272,121.265038 236.46199,117.677022 C236.616676,116.816957 236.674877,115.942334 236.635512,115.069374 C236.789012,110.861125 234.740118,106.719567 233.885856,102.511317 C232.891441,97.6361499 233.425355,92.2674637 230.822525,88.0325373 C228.820348,84.7979872 225.269821,82.7838963 221.579142,81.8568809 C218.188789,81.0098956 214.851827,81.3100085 211.434779,80.949873 C208.298035,80.6164143 205.301444,79.2292258 202.1647,78.7156993 C200.489104,78.3515846 198.754767,78.3515846 197.07917,78.7156993 C191.773402,80.1762487 190.111595,86.8587625 186.013806,90.5334781 C184.538869,91.8673132 182.730236,92.7876594 181.395451,94.2482088 C179.45334,96.3756758 178.779274,99.3434588 178.879382,102.251219 C178.853711,103.225867 178.911764,104.200919 179.052904,105.165649 C179.560123,108.653628 180.908255,111.95487 181.722474,115.376157 C182.338038,117.908179 182.671536,120.500455 182.716888,123.105731 C182.716888,123.692618 182.716888,124.279506 182.663497,124.859724 C182.687787,126.034399 182.375151,127.191484 181.762517,128.194312 C181.021712,129.214696 179.800384,129.708214 178.712534,130.361794 C175.156567,127.541653 172.487627,123.758714 171.024175,119.464361 C171.024175,119.464361 170.843979,119.691113 170.536979,120.131279 L170.536979,119.464361 C170.536979,119.464361 163.863056,109.674012 162.848619,101.67767 L165.171145,101.917761 L170.510283,26.8561912 L156.875458,24.8554386 C156.495045,20.9806477 155.460587,15.3585328 152.717604,11.2569899 C155.00676,6.74862737 156.161349,0.64633186 146.123768,0.0394368975 C134.377664,-0.674164872 135.098448,8.46927462 136.346471,13.4711562 C135.780692,16.2005547 135.556511,18.9896315 135.679079,21.7742796 L123.666017,20.0269556 L123.599278,21.0006552 L120.742839,21.0006552 L112,97.5761273 L119.448098,97.2026535 L146.744443,100.043722 C148.926816,119.871181 152.357212,144.373731 156.428305,150.149237 C156.563819,150.344274 156.713259,150.529269 156.875458,150.702779 L156.875458,185.789311 C156.875458,185.789311 156.388262,231.139703 148.092576,238.429112 C153.181651,236.619772 158.564121,235.776108 163.963165,235.94151 C163.86973,236.241623 163.776295,236.561743 163.68286,236.901871 C162.468614,241.378197 161.622657,245.946239 161.153443,250.560342 C161.037762,251.578503 160.933203,252.641125 160.839769,253.748208 C160.075726,263.906634 160.216432,274.112809 161.260226,284.246347 C164.677274,320.313248 170.043108,346.149633 170.043108,346.149633 L171.538067,367.117521 C171.538067,367.117521 170.076478,402.697572 173.974049,414.395305 C175.443119,415.747762 177.131084,416.841452 178.966143,417.629856 C178.999513,417.963314 179.039557,418.296773 179.072926,418.650239 C179.106296,419.003706 179.159687,419.550578 179.206405,420.01742 C177.457837,420.811052 174.194288,423.958903 173.486853,436.323554 C173.486853,436.323554 174.461245,445.587039 172.025264,449.968687 C169.589282,454.350335 171.050871,467.028438 178.36549,468.488987 C183.040296,469.348208 187.832727,469.348208 192.507533,468.488987 C192.507533,468.488987 195.924582,468.488987 193.481926,456.304404 L193.054795,453.18323 C193.001404,447.147626 193.255013,440.685195 194.456319,438.757803 C196.892301,434.856336 193.481926,430.961537 193.481926,430.961537 C193.481926,430.961537 193.241665,431.094921 192.847903,431.274988 C192.220555,427.907055 191.399662,422.438331 191.693315,418.263427 C191.693315,417.909961 191.75338,417.59651 191.793423,417.229705 C193.281775,416.452754 194.669179,415.496372 195.924582,414.381967 L195.924582,368.091221 C195.924582,368.091221 195.437385,296.931119 200.80322,295.4639 C200.80322,295.4639 203.239201,321.293617 202.264809,333.971719 C201.290416,346.649822 203.726398,360.294954 203.726398,360.294954 L204.700791,411.961056 C204.700791,411.961056 205.63514,412.407891 207.143446,412.934756 L207.043338,413.87511 C206.449358,419.61727 205.494987,428.287198 204.627377,433.595861 C203.439037,434.067218 202.554981,435.087513 202.258135,436.330223 C200.796546,441.205391 201.770938,453.389974 198.841086,456.804592 C197.11254,458.805345 195.043624,462.880211 196.05806,465.761294 C195.424038,468.288912 195.704342,472.237064 203.232527,472.890643 C214.451392,473.864343 219.33003,468.015476 219.33003,468.015476 C219.33003,468.015476 220.791619,465.581227 219.33003,461.192909 C217.868441,456.804592 219.817226,449.008326 219.817226,449.008326 C219.817226,449.008326 220.865032,442.392504 219.149834,441.525511 C219.003008,440.738548 218.869529,440.23836 218.869529,440.23836 C218.892677,438.7396 218.341073,437.288791 217.327853,436.183502 C217.287809,431.081582 217.494701,421.644699 219.289986,415.429028 C219.396769,415.075561 219.503552,414.76211 219.617008,414.395305 C221.062893,414.145786 222.456906,413.65665 223.741493,412.948094 C223.741493,412.948094 223.254297,401.737211 226.671345,393.940944 C230.088394,386.144678 228.132934,354.946276 228.132934,354.946276 C228.132934,354.946276 226.671345,346.749859 228.733587,340.10736 C231.096007,332.745916 232.867974,325.208148 234.032682,317.565548 L236.909143,297.431307 C236.909143,297.431307 244.484046,272.922087 234.506531,247.765958 C234.099421,246.725566 233.652269,245.685175 233.171746,244.644784 C232.34418,242.837437 231.423178,241.023421 230.395394,239.222744 C230.23522,238.942639 230.061698,238.655864 229.89485,238.375759 C230.942656,238.115661 231.536635,237.96227 231.536635,237.96227 C231.536635,237.96227 218.368985,207.284063 226.657997,191.658185 C226.657997,191.658185 231.329743,186.989762 231.997136,181.861166 C232.824702,175.078615 233.725682,168.302733 235.207293,161.633557 L235.467576,160.459782 C235.467576,160.459782 235.507619,160.23303 235.574358,159.826211 C235.761228,159.706166 235.941424,159.579451 236.12162,159.446068 C250.176902,149.188876 262.296746,106.359431 262.296746,106.359431 L266.200991,99.0233384 L268.056342,95.1018633 L264.252206,128.267673 L294.004554,135.603766 L313.025235,134.143216 L312.971843,130.055012 L327.467604,128.927921 L345,121.57182 Z M156.394936,24.868777 L151.109189,24.0951526 C150.181514,19.3266922 149.554165,16.1988489 149.554165,16.1988489 C150.661961,14.8302766 151.642635,13.3636614 152.484017,11.8172007 C155.040129,15.7253375 156.021196,21.0606778 156.394936,24.8421003 L156.394936,24.868777 Z M136.653472,14.6315927 C137.020537,15.8853977 137.354234,16.6923679 137.354234,16.6923679 L138.021626,22.1944376 L136.219667,21.9343398 C136.117104,19.4825909 136.264692,17.0267781 136.660146,14.604916 L136.653472,14.6315927 Z M303.368068,53.0527123 L296.213623,53.9730585 C297.221385,51.0119446 298.469409,46.1567849 297.741951,41.7617983 C299.160639,40.4628662 299.8871,38.5739295 299.704085,36.6598791 C303.955374,41.7351216 303.554938,50.6984934 303.368068,53.0327047 L303.368068,53.0527123 Z M291.488485,45.4431831 C293.620843,44.7307854 295.598107,43.6195074 297.31482,42.168618 C297.928821,46.4835745 296.647428,51.2253582 295.673035,54.0397502 L288.999112,54.8934047 L287.157109,54.5399384 L291.488485,45.4431831 Z" id="Shape" fill="url(#linearGradient-1)" fill-rule="nonzero"></path>
                    <polygon id="Path" fill="#6C63FF" fill-rule="nonzero" points="345 124.68687 327.421631 132 307 61.024365 311.790426 55.3565217 320.569504 54"></polygon>
                    <polygon id="Path" fill="#FFFFFF" fill-rule="nonzero" opacity="0.2" points="345 124.68687 327.421631 132 307 61.024365 311.790426 55.3565217 320.569504 54"></polygon>
                    <polygon id="Path" fill="#6C63FF" fill-rule="nonzero" points="313.077103 55 282 58.8519337 297.929761 133 329 130.666298"></polygon>
                    <polygon id="Path" fill="#FFFFFF" fill-rule="nonzero" opacity="0.07" points="313.077103 55 282 58.8519337 297.929761 133 329 130.666298"></polygon>
                    <path d="M304.812977,56 L304.268166,55.9444805 C304.268166,55.7779221 306.53821,39.4922078 294,37.437987 L294.105935,37 C307.181389,39.1405844 304.858378,55.8334416 304.812977,56 Z" id="Path" fill="#535461" fill-rule="nonzero"></path>
                    <rect id="Rectangle" fill="#774E55" fill-rule="nonzero" x="188" y="108" width="35" height="48"></rect>
                    <rect id="Rectangle" fill="#000000" fill-rule="nonzero" opacity="0.2" x="188" y="108" width="35" height="48"></rect>
                    <polygon id="Path" fill="#6C63FF" fill-rule="nonzero" points="311 136.536446 294 138 296.61724 63.8983139 302.279886 60 310.125576 61.4635538"></polygon>
                    <polygon id="Path" fill="#000000" fill-rule="nonzero" opacity="0.2" points="311 136.536446 294 138 296.61724 63.8983139 302.279886 60 310.125576 61.4635538"></polygon>
                    <polygon id="Path" fill="#6C63FF" fill-rule="nonzero" points="301 60.7945789 271.550329 55 263 130.763452 291.976479 138"></polygon>
                    <polygon id="Path" fill="#6C63FF" fill-rule="nonzero" points="127.503978 23 123.000346 23 114 100 134 99.0229115"></polygon>
                    <polygon id="Path" fill="#000000" fill-rule="nonzero" opacity="0.2" points="127.503978 23 123.000346 23 114 100 134 99.0229115"></polygon>
                    <polygon id="Path" fill="#6C63FF" fill-rule="nonzero" points="124.448022 23 119 100.118083 166.551978 105 172 29.8333333"></polygon>
                    <path d="M182.200856,419.001368 C182.200856,419.001368 176.465263,418.52957 175.506023,435.108044 C175.506023,435.108044 176.465263,444.104979 174.070471,448.370823 C171.675679,452.636668 173.111231,464.949298 180.288992,466.371246 C184.881133,467.209585 189.58929,467.209585 194.181431,466.371246 C194.181431,466.371246 197.528848,466.371246 195.140671,454.530415 L190.357703,419.951518 L182.200856,419.001368 Z" id="Path" fill="#5C3D53" fill-rule="nonzero"></path>
                    <path d="M182.200856,419.001368 C182.200856,419.001368 176.465263,418.52957 175.506023,435.108044 C175.506023,435.108044 176.465263,444.104979 174.070471,448.370823 C171.675679,452.636668 173.111231,464.949298 180.288992,466.371246 C184.881133,467.209585 189.58929,467.209585 194.181431,466.371246 C194.181431,466.371246 197.528848,466.371246 195.140671,454.530415 L190.357703,419.951518 L182.200856,419.001368 Z" id="Path" fill="#000000" fill-rule="nonzero" opacity="0.05"></path>
                    <path d="M210.241958,140.183978 C209.83991,147.648013 211.234108,151.976598 211.234108,151.976598 L199.049463,155.486636 C199.049463,155.486636 178.895191,158.497223 186.864818,149.937168 C189.620791,146.989013 190.976082,141.93206 191.566184,136.590697 C191.935418,132.942242 192.050297,129.269448 191.90987,125.60275 C191.801784,122.167369 191.524723,118.740456 191.079836,115.336234 C191.079836,115.336234 220.610903,104.306667 214.048443,122.356312 C212.852955,125.621079 211.909526,128.985136 211.227623,132.414723 C210.720313,134.97491 210.390857,137.571757 210.241958,140.183978 Z" id="Path" fill="#F8BDC5" fill-rule="nonzero"></path>
                    <path d="M216.005487,123.420663 C214.75603,126.390473 213.770012,129.450601 213.057326,132.57034 C205.619862,134.041837 197.907194,131.674711 192.867505,126.3738 C192.754539,123.248791 192.46497,120.131484 192,117.03482 C192,117.03482 222.864198,107.001726 216.005487,123.420663 Z" id="Path" fill="#000000" fill-rule="nonzero" opacity="0.1"></path>
                    <circle id="Oval" fill="#F8BDC5" fill-rule="nonzero" cx="209.5" cy="112.5" r="20.5"></circle>
                    <path d="M174,122.011362 L174,128.325457 L162.908893,156 L159.881509,153.084769 C159.714483,152.912075 159.560621,152.727995 159.421123,152.533965 C152.096807,142.512019 146.767495,75.8848844 146.767495,75.8848844 L139.715225,19.548381 C139.715225,19.548381 132.153741,2.08386351 148.783426,3.03769485 C165.413111,3.9915262 152.313049,19.0580311 152.313049,19.0580311 C152.313049,19.0580311 163.404156,72.4658692 161.890464,74.4071175 C160.376772,76.3483658 161.890464,82.1788278 161.890464,82.1788278 C161.890464,82.1788278 166.43154,93.3494019 165.922326,101.598028 C165.413111,109.846654 174,122.011362 174,122.011362 Z" id="Path" fill="#F8BDC5" fill-rule="nonzero"></path>
                    <path d="M291.001037,47.4261008 L266.456449,100.60942 L262.682368,107.846793 C262.682368,107.846793 250.929173,150.334586 237.354233,160.508379 C236.574144,161.105176 235.728187,161.605828 234.833826,162 L232,138.789571 L234.611821,132.047176 L234.807708,131.532132 C237.836135,128.506324 240.242746,124.890194 241.885743,120.896806 C244.719568,114.127655 252.744389,100.589353 252.744389,100.589353 C252.744389,100.589353 254.161301,96.7231781 254.161301,93.8202023 C254.161301,90.9172265 281.063058,43.0515705 281.063058,43.0515705 C281.063058,43.0515705 283.420227,21.2926299 294.775119,31.9279559 C306.13001,42.5632819 291.001037,47.4261008 291.001037,47.4261008 Z" id="Path" fill="#F8BDC5" fill-rule="nonzero"></path>
                    <path d="M195,431.766865 C195,431.766865 178.554862,438.700472 180.488403,432.260165 C181.665923,428.354873 181.231044,420.975926 180.709188,415.81683 C180.374665,412.452798 180,410 180,410 L194.049955,411.486752 C193.558857,412.741861 193.284918,414.074953 193.24041,415.426301 C192.778769,421.996783 195,431.766865 195,431.766865 Z" id="Path" fill="#F8BDC5" fill-rule="nonzero"></path>
                    <path d="M219.064048,416.854987 C216.601881,425.131282 217.245032,439.545621 217.245032,439.545621 C217.245032,439.545621 202.686412,441.363136 204.096149,437.728106 C205.077118,435.212515 206.512841,422.74776 207.292419,415.4211 C207.636733,412.220009 207.851117,410 207.851117,410 L221,412.729417 C220.104746,413.981316 219.44902,415.378686 219.064048,416.854987 Z" id="Path" fill="#F8BDC5" fill-rule="nonzero"></path>
                    <path d="M179,412 L193,413.675131 C192.510648,415.08927 192.237682,416.591272 192.193333,418.113843 C188.31539,420.464058 183.72103,420.626216 179.726667,418.553855 C179.373333,414.755861 179,412 179,412 Z" id="Path" fill="#000000" fill-rule="nonzero" opacity="0.1"></path>
                    <path d="M222,410.471795 C221.080684,412.069146 220.406742,413.85355 220.010422,415.739623 C215.480815,416.621603 210.725722,415.074129 208,413.911518 C208.351492,409.830355 208.570346,407 208.570346,407 L222,410.471795 Z" id="Path" fill="#000000" fill-rule="nonzero" opacity="0.1"></path>
                    <path d="M234.277718,295.988325 L231.449297,315.86858 C230.301809,323.414784 228.556746,330.85735 226.230662,338.125678 C224.198979,344.683633 225.639747,352.772886 225.639747,352.772886 C225.639747,352.772886 227.558559,383.57197 224.198979,391.275069 C220.8394,398.978169 221.317443,410.043469 221.317443,410.043469 C213.635558,414.377711 202.600734,409.078085 202.600734,409.078085 L201.638009,358.065855 C201.638009,358.065855 199.241155,344.590423 200.197241,332.10035 C201.153326,319.610276 198.756472,294.084188 198.756472,294.084188 C193.444884,295.528935 193.956125,365.788928 193.956125,365.788928 L193.956125,411.50819 C182.436618,421.614763 172.35788,411.50819 172.35788,411.50819 C168.520257,399.956869 169.961025,364.823544 169.961025,364.823544 L168.520257,344.131034 C168.520257,344.131034 163.208669,318.624919 159.888927,283.01223 C158.862384,273.006501 158.724626,262.929087 159.477278,252.898902 C159.570231,251.80702 159.672037,250.757303 159.782695,249.749753 C160.242723,245.195387 161.07321,240.686346 162.265862,236.267664 C162.646473,234.810733 163.134717,233.384236 163.726549,232 L215.29543,234.403474 L218.336314,234.543288 L225.639747,234.882837 C226.436486,236.087903 227.186748,237.312942 227.883893,238.537981 C228.893095,240.315619 229.802705,242.106573 230.612722,243.864238 C231.077486,244.889543 231.515692,245.921505 231.940619,246.94681 C241.747138,271.773827 234.277718,295.988325 234.277718,295.988325 Z" id="Path" fill="#5E52AD" fill-rule="nonzero"></path>
                    <path d="M181,241.005779 C181,241.005779 178.888199,260.65348 164,254.967204 C164.086957,254.019491 164.182195,253.108377 164.285714,252.233862 C167.78882,253.118009 177.484472,254.337322 177.850932,241 L181,241.005779 Z" id="Path" fill="#000000" fill-rule="nonzero" opacity="0.1"></path>
                    <path d="M233,248.098502 C223.04,252.214777 219.284,241.25424 218,235 L220.748,235.14577 C222.242,244.981794 228.206,245.557934 231.836,244.86379 C232.244,245.960538 232.634,247.036461 233,248.098502 Z" id="Path" fill="#000000" fill-rule="nonzero" opacity="0.1"></path>
                    <path d="M184.155969,429.404056 C181.627129,429.02304 177.761912,427.689484 178.974932,423.03189 C178.974932,423.03189 174.294181,421.481549 174.787613,440.000246 C174.787613,440.000246 174.294181,449.019818 173.300464,450.924898 C172.306747,452.829979 173.300464,464.221047 183.703656,463.268507 C183.703656,463.268507 191.132549,465.640004 193.113131,461.842981 C193.113131,461.842981 191.625981,440.000246 194.106848,436.222931 C196.587714,432.445616 193.113131,428.622316 193.113131,428.622316 C193.113131,428.622316 189.604281,430.487982 187.082295,429.936165 C186.122843,429.679965 185.135979,429.555149 184.155969,429.404056 Z" id="Path" fill="#5C3D53" fill-rule="nonzero"></path>
                    <path d="M197.99931,462.099271 C197.99931,462.099271 193.379702,469.97393 204.005439,470.896592 C214.631175,471.819253 219.244393,466.264062 219.244393,466.264062 C219.244393,466.264062 220.630914,463.951002 219.244393,459.779803 C217.857872,455.608605 219.704437,448.201684 219.704437,448.201684 C219.704437,448.201684 221.090958,439.404364 217.857872,441.256094 C214.624785,443.107824 197.99931,462.099271 197.99931,462.099271 Z" id="Path" fill="#5C3D53" fill-rule="nonzero"></path>
                    <path d="M197.99931,462.099271 C197.99931,462.099271 193.379702,469.97393 204.005439,470.896592 C214.631175,471.819253 219.244393,466.264062 219.244393,466.264062 C219.244393,466.264062 220.630914,463.951002 219.244393,459.779803 C217.857872,455.608605 219.704437,448.201684 219.704437,448.201684 C219.704437,448.201684 221.090958,439.404364 217.857872,441.256094 C214.624785,443.107824 197.99931,462.099271 197.99931,462.099271 Z" id="Path" fill="#000000" fill-rule="nonzero" opacity="0.05"></path>
                    <path d="M210.358286,433.596331 C210.358286,433.596331 204.688784,431.211008 203.269773,435.981653 C201.850763,440.752298 202.79895,452.698734 199.960929,456.04215 C197.122908,459.385566 193.34324,468.457721 204.688784,467.981978 C216.034327,467.506235 218.421142,463.680468 218.421142,463.680468 C218.421142,463.680468 217.950318,451.74064 219.369329,448.397224 C220.788339,445.053808 219.369329,439.80742 219.369329,439.80742 C219.369329,439.80742 219.807456,433.08755 210.358286,433.596331 Z" id="Path" fill="#5C3D53" fill-rule="nonzero"></path>
                    <circle id="Oval" fill="#000000" fill-rule="nonzero" opacity="0.2" cx="137.5" cy="29.5" r="1"></circle>
                    <circle id="Oval" fill="#000000" fill-rule="nonzero" opacity="0.2" cx="159.5" cy="33.5" r="1"></circle>
                    <path d="M157.99787,34 L157.498174,34 C157.498174,33.793402 157.852125,13.4734936 145.699793,11.6007831 C143.305416,11.2342384 141.348273,11.7540655 139.883886,13.1469356 C134.866104,17.9253463 136.941231,31.4208578 136.962052,31.5541468 L136.469296,31.6274558 C136.379073,31.0609775 134.338647,17.7520706 139.536875,12.8070486 C141.119246,11.2942184 143.229074,10.7277402 145.783076,11.1209427 C158.358761,13.0536332 158.00481,33.793402 157.99787,34 Z" id="Path" fill="#535461" fill-rule="nonzero"></path>
                    <path d="M293.979969,60 L293.667595,59.7885528 C293.720458,59.6248517 299.074062,43.1660735 292,37.4297153 L292.173007,37 C299.520997,42.9614472 294.037638,59.8294781 293.979969,60 Z" id="Path" fill="#535461" fill-rule="nonzero"></path>
                    <path d="M210,152.476028 L198.388546,155.550361 C198.388546,155.550361 179.182374,158.187239 186.777093,150.689756 C189.403419,148.107559 190.694954,143.678333 191.257297,139 C194.291477,143.678333 197.943616,142.347742 197.943616,142.347742 L209.017445,142.13509 L209.060702,142.13509 C208.671388,148.709059 210,152.476028 210,152.476028 Z" id="Path" fill="#000000" fill-rule="nonzero" opacity="0.1"></path>
                    <path d="M237.281198,160.531284 C236.366054,161.118917 235.373639,161.611881 234.324439,162 L231,139.145993 L234.063999,132.507135 L234.829998,132 C241.746976,133.692645 238.177417,155.585071 237.281198,160.531284 Z" id="Path" fill="#000000" fill-rule="nonzero" opacity="0.1"></path>
                    <path d="M172,120 L172,126.316206 L161.349282,154 L158.442105,151.083794 C158.281711,150.911043 158.133959,150.726901 158,150.532806 C159.25933,136.099605 172,120 172,120 Z" id="Path" fill="#000000" fill-rule="nonzero" opacity="0.1"></path>
                    <path d="M233,239.553247 C226.145416,241.241609 190.360555,249.516585 179.743068,241.682051 C175.553026,238.592282 170.617183,237.45781 166,237.277629 C166.388666,235.817296 166.887244,234.387469 167.491601,233 L220.151892,235.409086 L223.257134,235.549226 L230.715139,235.889568 C231.528739,237.104121 232.2881,238.325347 233,239.553247 Z" id="Path" fill="#000000" fill-rule="nonzero" opacity="0.1"></path>
                    <path d="M138,9 C138,9 145.198672,18 150,9" id="Path" fill="#F8BDC5" fill-rule="nonzero"></path>
                    <path d="M288.322383,30 C288.322383,30 285.425394,46.7309713 297,38.9247274" id="Path" fill="#F8BDC5" fill-rule="nonzero"></path>
                    <g id="Group" opacity="0.1" transform="translate(167.000000, 234.000000)" fill="#000000" fill-rule="nonzero">
                        <path d="M33.26,67.3053957 C33.0266667,64.3773381 32.8533333,62.5473022 32.8533333,62.5473022 C27.52,63.9913669 28.0333333,134.218165 28.0333333,134.218165 L28.0333333,179.915827 C24.6466667,182.870504 21.3666667,184.094964 18.4666667,184.354496 C21.9466667,184.660612 26.0933333,183.689029 30.4666667,179.915827 L30.4666667,134.218165 C30.4666667,134.218165 30.0933333,83.3298561 33.26,67.3053957 Z" id="Path"></path>
                        <path d="M68.5533333,15.4521583 C68.1466667,14.4273381 67.7133333,13.3958633 67.22,12.3710432 C66.4066667,10.5875899 65.4933333,8.79748201 64.48,7.04730216 C63.8133333,5.82284173 63.0266667,4.60503597 62.2266667,3.39388489 L54.8933333,3.0544964 L51.84,2.9147482 L0.06,0.512410072 L0.0133333333,0.618884892 L49.4333333,2.9147482 L52.4866667,3.0544964 L59.82,3.39388489 C60.62,4.59838129 61.3733333,5.82284173 62.0733333,7.04730216 C63.0866667,8.82410072 64,10.6142086 64.8133333,12.3710432 C65.28,13.3958633 65.72,14.4273381 66.1466667,15.4521583 C76,40.2741007 68.52,64.4638489 68.52,64.4638489 L65.68,84.3347122 C64.5278145,91.8773503 62.7756073,99.3164004 60.44,106.581295 C58.4,113.136151 59.8466667,121.221583 59.8466667,121.221583 C59.8466667,121.221583 61.7733333,152.006115 58.4,159.705576 C55.0266667,167.405036 55.5066667,178.465108 55.5066667,178.465108 C53.6451063,179.468044 51.5800603,180.036844 49.4666667,180.128777 C52.3836131,180.390826 55.3147277,179.813509 57.9133333,178.465108 C57.9133333,178.465108 57.4333333,167.398381 60.8066667,159.705576 C64.18,152.01277 62.2533333,121.221583 62.2533333,121.221583 C62.2533333,121.221583 60.8066667,113.129496 62.8466667,106.581295 C65.182274,99.3164004 66.9344812,91.8773503 68.0866667,84.3347122 L70.9266667,64.4638489 C70.9266667,64.4638489 78.4066667,40.2607914 68.5533333,15.4521583 Z" id="Path"></path>
                    </g>
                    <path d="M210.703748,141.359807 C217.224722,144.479366 232.483801,132.497877 232.483801,132.497877 C239.083027,134.412001 234.368363,162.183357 234.368363,162.183357 L234.114045,163.335805 C232.679431,169.886215 231.812141,176.542598 231.010061,183.205604 C230.403611,188.232663 225.884575,192.82921 225.884575,192.82921 C217.870298,208.148825 230.59924,238.311179 230.59924,238.311179 C230.59924,238.311179 189.588834,249.325671 178.281465,240.702178 C166.974096,232.078686 150,238.788054 150,238.788054 C158.014277,231.608434 158.477266,187.080214 158.477266,187.080214 L158.477266,152.63923 C159.422808,138.273365 172.171312,122 172.171312,122 C177.388091,136.84274 191.884217,137.822983 191.884217,137.822983 C195.099057,143.121596 199.057288,141.631361 199.057288,141.631361 L210.703748,141.359807 Z" id="Path" fill="#EB6475" fill-rule="nonzero"></path>
                    <path d="M202.223598,82.269487 C200.53817,81.910171 198.793737,81.910171 197.108309,82.269487 C191.768844,83.7156775 190.09092,90.3201694 185.96744,93.9456423 C184.48652,95.2785367 182.659146,96.171576 181.314089,97.6177665 C178.922879,100.190253 178.44056,104.002331 178.950051,107.447863 C179.459542,110.893395 180.818185,114.158986 181.667337,117.537874 C182.50588,120.920174 182.824152,124.40648 182.611593,127.881135 C182.630457,129.034485 182.314759,130.169337 181.701303,131.15339 C180.716287,132.486285 178.902499,132.906147 177.625375,133.972462 C173.726071,137.264711 176.946054,144.095795 174.086111,148.301077 C172.85654,150.120478 170.55364,151.320083 170.084909,153.452714 C169.752041,154.96555 170.458535,156.491714 171.151443,157.884588 C172.972024,161.550048 174.860537,165.315475 177.944656,168.047908 C181.028775,170.780342 184.839767,172.153223 188.63038,173.546098 C189.778433,173.96596 191.218594,174.332506 192.094918,173.499447 C193.175039,172.459789 192.359853,170.700368 191.6126,169.414125 C190.430581,167.414784 189.506704,165.002245 190.199612,162.749653 C190.89252,160.497061 193.1139,159.00422 194.608407,157.124839 C198.460159,152.259774 197.196621,145.275407 195.287728,139.410671 C194.479336,136.938152 193.569045,134.305686 194.25516,131.79318 C194.547268,130.713535 195.124691,129.733858 195.491525,128.674207 C197.121896,123.955761 194.384231,118.777466 195.18583,113.859085 C195.602685,111.938463 196.288514,110.08369 197.223794,108.347567 L201.537484,99.2505621 C201.971508,98.155746 202.620026,97.1549881 203.446377,96.3048654 C204.786814,95.2474396 206.486219,94.7282261 208.201626,94.8520105 C211.735451,94.9295412 215.082241,96.425483 217.460775,98.9906477 C222.080159,104.028989 221.788051,111.653145 221.231008,118.370933 L220.830208,123.222669 C220.5381,126.714852 220.150887,130.440292 217.909127,133.159397 C216.163271,135.26537 213.344088,136.698231 212.624007,139.324033 C211.999032,141.583289 213.174257,144.035815 212.556075,146.295071 C211.632198,149.673959 207.379647,150.893557 205.131093,153.625991 C203.195629,156.056302 202.974601,159.401438 204.57405,162.056548 C205.429995,163.389442 206.795431,164.722337 206.612014,166.288488 C206.45577,167.548073 205.300924,168.567737 205.307717,169.833987 C205.420936,170.993724 206.249681,171.965663 207.393233,172.279848 C208.517764,172.565572 209.690379,172.620029 210.837392,172.439796 L223.017623,171.360151 C223.780286,171.35727 224.528357,171.154817 225.184658,170.773678 C226.033809,170.173875 226.312331,169.067573 226.427816,168.047908 C226.916927,163.795975 225.748494,159.150838 227.915529,155.432063 C228.59485,154.239122 229.593453,153.246116 230.347499,152.099827 C234.504946,145.701933 230.313533,137.02479 232.575673,129.76718 C233.649001,126.321648 236.148903,123.362622 236.814638,119.823788 C237.697756,115.105341 235.19106,110.493527 234.219631,105.828396 C233.221028,101.009983 233.757692,95.7050629 231.135512,91.5131099 C229.131514,88.3141633 225.544698,86.3214861 221.835604,85.4084534 C218.438997,84.5687299 215.042391,84.8686312 211.645785,84.5087497 C208.398629,84.1422037 205.382442,82.7693224 202.223598,82.269487 Z" id="Path" fill="#000000" fill-rule="nonzero" opacity="0.1"></path>
                    <path d="M202.223598,82.269487 C200.53817,81.910171 198.793737,81.910171 197.108309,82.269487 C191.768844,83.7156775 190.09092,90.3201694 185.96744,93.9456423 C184.48652,95.2785367 182.659146,96.171576 181.314089,97.6177665 C178.922879,100.190253 178.44056,104.002331 178.950051,107.447863 C179.459542,110.893395 180.818185,114.158986 181.667337,117.537874 C182.50588,120.920174 182.824152,124.40648 182.611593,127.881135 C182.630457,129.034485 182.314759,130.169337 181.701303,131.15339 C180.716287,132.486285 178.902499,132.906147 177.625375,133.972462 C173.726071,137.264711 176.946054,144.095795 174.086111,148.301077 C172.85654,150.120478 170.55364,151.320083 170.084909,153.452714 C169.752041,154.96555 170.458535,156.491714 171.151443,157.884588 C172.972024,161.550048 174.860537,165.315475 177.944656,168.047908 C181.028775,170.780342 184.839767,172.153223 188.63038,173.546098 C189.778433,173.96596 191.218594,174.332506 192.094918,173.499447 C193.175039,172.459789 192.359853,170.700368 191.6126,169.414125 C190.430581,167.414784 189.506704,165.002245 190.199612,162.749653 C190.89252,160.497061 193.1139,159.00422 194.608407,157.124839 C198.460159,152.259774 197.196621,145.275407 195.287728,139.410671 C194.479336,136.938152 193.569045,134.305686 194.25516,131.79318 C194.547268,130.713535 195.124691,129.733858 195.491525,128.674207 C197.121896,123.955761 194.384231,118.777466 195.18583,113.859085 C195.602685,111.938463 196.288514,110.08369 197.223794,108.347567 L201.537484,99.2505621 C201.971508,98.155746 202.620026,97.1549881 203.446377,96.3048654 C204.786814,95.2474396 206.486219,94.7282261 208.201626,94.8520105 C211.735451,94.9295412 215.082241,96.425483 217.460775,98.9906477 C222.080159,104.028989 221.788051,111.653145 221.231008,118.370933 L220.830208,123.222669 C220.5381,126.714852 220.150887,130.440292 217.909127,133.159397 C216.163271,135.26537 213.344088,136.698231 212.624007,139.324033 C211.999032,141.583289 213.174257,144.035815 212.556075,146.295071 C211.632198,149.673959 207.379647,150.893557 205.131093,153.625991 C203.195629,156.056302 202.974601,159.401438 204.57405,162.056548 C205.429995,163.389442 206.795431,164.722337 206.612014,166.288488 C206.45577,167.548073 205.300924,168.567737 205.307717,169.833987 C205.420936,170.993724 206.249681,171.965663 207.393233,172.279848 C208.517764,172.565572 209.690379,172.620029 210.837392,172.439796 L223.017623,171.360151 C223.780286,171.35727 224.528357,171.154817 225.184658,170.773678 C226.033809,170.173875 226.312331,169.067573 226.427816,168.047908 C226.916927,163.795975 225.748494,159.150838 227.915529,155.432063 C228.59485,154.239122 229.593453,153.246116 230.347499,152.099827 C234.504946,145.701933 230.313533,137.02479 232.575673,129.76718 C233.649001,126.321648 236.148903,123.362622 236.814638,119.823788 C237.697756,115.105341 235.19106,110.493527 234.219631,105.828396 C233.221028,101.009983 233.757692,95.7050629 231.135512,91.5131099 C229.131514,88.3141633 225.544698,86.3214861 221.835604,85.4084534 C218.438997,84.5687299 215.042391,84.8686312 211.645785,84.5087497 C208.398629,84.1488682 205.382442,82.7759869 202.223598,82.269487 Z" id="Path" fill="#774E55" fill-rule="nonzero"></path>
                    <path d="M180,192.949665 C180,192.949665 189.234699,195.479615 202.620543,190 L209.536988,190 C209.536988,190 209.996807,195.899331 228,193.36938" id="Path" fill="#000000" fill-rule="nonzero" opacity="0.1"></path>
                    <ellipse id="Oval" fill="#6C63FF" fill-rule="nonzero" opacity="0.1" cx="224" cy="461.5" rx="224" ry="20.5"></ellipse>
                    <rect id="Rectangle" fill="#6C63FF" fill-rule="nonzero" opacity="0.1" x="34" y="172" width="53" height="19" rx="5.17"></rect>
                    <rect id="Rectangle" fill="#6C63FF" fill-rule="nonzero" opacity="0.1" x="59" y="196" width="53" height="19" rx="5.17"></rect>
                    <rect id="Rectangle" fill="#6C63FF" fill-rule="nonzero" opacity="0.1" x="268" y="174" width="53" height="19" rx="5.17"></rect>
                    <rect id="Rectangle" fill="#6C63FF" fill-rule="nonzero" opacity="0.1" x="292" y="196" width="53" height="19" rx="5.17"></rect>
                    <rect id="Rectangle" fill="#6C63FF" fill-rule="nonzero" opacity="0.1" x="17" y="218" width="53" height="19" rx="5.17"></rect>
                    <rect id="Rectangle" fill="#6C63FF" fill-rule="nonzero" opacity="0.1" x="70" y="296" width="53" height="19" rx="5.17"></rect>
                    <rect id="Rectangle" fill="#6C63FF" fill-rule="nonzero" opacity="0.1" x="95" y="318" width="53" height="19" rx="5.17"></rect>
                    <rect id="Rectangle" fill="#6C63FF" fill-rule="nonzero" opacity="0.1" x="54" y="341" width="53" height="19" rx="5.17"></rect>
                    <rect id="Rectangle" fill="#6C63FF" fill-rule="nonzero" opacity="0.1" x="287" y="353" width="53" height="19" rx="5.17"></rect>
                    <rect id="Rectangle" fill="#6C63FF" fill-rule="nonzero" opacity="0.1" x="245" y="374" width="53" height="19" rx="5.17"></rect>
                    <g id="Group" opacity="0.1" transform="translate(467.000000, 260.000000)">
                        <path d="M30.5703509,184.594065 C30.5703509,184.594065 20.79,135.77536 40.9315789,102.315647 C49.4692056,88.3354217 53.1736251,72.0038545 51.4886842,55.7728417 C50.6203476,48.0734266 49.0377068,40.4686074 46.760614,33.053777" id="Path" stroke="#535461" stroke-width="2"></path>
                        <path d="M59.3372807,11.8919065 C58.7969298,17.7147482 46.5039474,33.6393885 46.5039474,33.6393885 C46.5039474,33.6393885 37.3720175,15.7782374 37.9191228,9.94874101 C38.5737039,4.21866584 43.759463,0.0566371328 49.5876097,0.583751989 C55.4157563,1.11086685 59.7457453,6.13352801 59.3305263,11.8852518 L59.3372807,11.8919065 Z" id="Path" fill="#6C63FF" fill-rule="nonzero"></path>
                        <path d="M74.0280702,45.7642086 C70.3604386,50.3625899 51.2657895,57.1570144 51.2657895,57.1570144 C51.2657895,57.1570144 53.4542105,37.2728417 57.1218421,32.6744604 C59.4297275,29.5135739 63.3115161,27.8547435 67.2309445,28.3544708 C71.1503729,28.8541981 74.4756907,31.4319349 75.8908645,35.0675117 C77.3060382,38.7030884 76.582964,42.8105071 74.007807,45.7642086 L74.0280702,45.7642086 Z" id="Path" fill="#6C63FF" fill-rule="nonzero"></path>
                        <path d="M68.1112281,100.818345 C62.5861404,102.961151 42.6269298,99.3276978 42.6269298,99.3276978 C42.6269298,99.3276978 54.7037719,83.25 60.2288596,81.1071942 C65.7259296,79.071477 71.8640261,81.7574148 74.0167077,87.1405472 C76.1693894,92.5236796 73.5403784,98.6127839 68.1112281,100.818345 L68.1112281,100.818345 Z" id="Path" fill="#6C63FF" fill-rule="nonzero"></path>
                        <path d="M54.109386,141.511691 C49.0300877,144.546223 28.7331579,144.286691 28.7331579,144.286691 C28.7331579,144.286691 37.8785965,126.432194 42.9578947,123.397662 C46.2450625,121.359304 50.3924574,121.225895 53.8075762,123.048659 C57.2226949,124.871423 59.3746843,128.367027 59.4372302,132.19324 C59.4997762,136.019453 57.4631566,139.58152 54.109386,141.511691 L54.109386,141.511691 Z" id="Path" fill="#6C63FF" fill-rule="nonzero"></path>
                        <path d="M28.6791228,56.2320144 C32.5426316,60.6773381 51.9074561,66.6665468 51.9074561,66.6665468 C51.9074561,66.6665468 48.8679825,46.8888489 45.0112281,42.4501799 C42.5308176,39.5125599 38.6369489,38.118597 34.82104,38.8022026 C31.005131,39.4858082 27.8585608,42.1410391 26.5865192,45.7508967 C25.3144775,49.3607542 26.114102,53.3657928 28.6791228,56.2320144 L28.6791228,56.2320144 Z" id="Path" fill="#6C63FF" fill-rule="nonzero"></path>
                        <path d="M12.914386,104.025899 C17.9464035,107.126978 38.2500877,107.133633 38.2500877,107.133633 C38.2500877,107.133633 29.347807,89.1660072 24.3090351,86.0582734 C21.0497132,83.9904199 16.9129693,83.8111252 13.4819334,85.5890054 C10.0508975,87.3668856 7.8567748,90.8266828 7.7392551,94.6443343 C7.62173539,98.4619858 9.5990135,102.046429 12.914386,104.025899 L12.914386,104.025899 Z" id="Path" fill="#6C63FF" fill-rule="nonzero"></path>
                        <path d="M4.05263158,152.531835 C8.48350877,156.42482 28.49,159.818705 28.49,159.818705 C28.49,159.818705 22.7960526,140.619964 18.3584211,136.726978 C15.5162417,134.056625 11.4224932,133.125303 7.67972533,134.297589 C3.93695742,135.469876 1.14057751,138.559281 0.385263902,142.356418 C-0.370049702,146.153556 1.03585989,150.054369 4.05263158,152.531835 L4.05263158,152.531835 Z" id="Path" fill="#6C63FF" fill-rule="nonzero"></path>
                    </g>
                    <g id="Group" opacity="0.1" transform="translate(396.000000, 332.000000)">
                        <path d="M16.5545902,100.518725 C16.5545902,100.518725 11.3321311,73.8181208 22.0862295,55.5161074 C26.6481243,47.8683592 28.6268909,38.934496 27.7254098,30.0559732 C27.2654578,25.8455699 26.4240183,21.686513 25.2116393,17.6309396" id="Path" stroke="#535461" stroke-width="2"></path>
                        <path d="M31.9262295,6.05322148 C31.6372131,9.23912752 25.0704918,17.9495302 25.0704918,17.9495302 C25.0704918,17.9495302 20.1908197,8.18167785 20.4798361,4.99577181 C20.932821,1.959193 23.655651,-0.19399801 26.6877452,0.086609604 C29.7198394,0.367217218 32.0086292,2.98421264 31.9060656,6.05322148 L31.9262295,6.05322148 Z" id="Path" fill="#6C63FF" fill-rule="nonzero"></path>
                        <path d="M39.77,24.5789262 C37.807377,27.0937584 27.6044262,30.8083893 27.6044262,30.8083893 C27.6044262,30.8083893 28.7739344,19.9627517 30.7365574,17.4208054 C32.7283431,15.0162611 36.2543987,14.643519 38.6972882,16.5792703 C41.1401777,18.5150216 41.6153152,22.0583182 39.77,24.5789262 Z" id="Path" fill="#6C63FF" fill-rule="nonzero"></path>
                        <path d="M36.6109836,54.7026846 C33.6603279,55.8753691 22.9936066,53.8892617 22.9936066,53.8892617 C22.9936066,53.8892617 29.4460656,45.0771812 32.4034426,43.9248322 C35.3250342,42.8683575 38.5505365,44.342358 39.6891261,47.2542675 C40.8277156,50.1661771 39.4679426,53.4637244 36.6177049,54.7026846 L36.6109836,54.7026846 Z" id="Path" fill="#6C63FF" fill-rule="nonzero"></path>
                        <path d="M29.1301639,76.9362416 C26.4416393,78.5969799 15.5732787,78.4546309 15.5732787,78.4546309 C15.5732787,78.4546309 20.4596721,68.6867785 23.175082,67.0260403 C24.932586,65.8932891 27.1606951,65.809838 28.9966683,66.808 C30.8326414,67.806162 31.9882125,69.7292157 32.0159355,71.8325397 C32.0436584,73.9358637 30.9391804,75.8892153 29.1301639,76.9362416 L29.1301639,76.9362416 Z" id="Path" fill="#6C63FF" fill-rule="nonzero"></path>
                        <path d="M15.5396721,30.313557 C17.6031148,32.747047 27.9539344,36.0210738 27.9539344,36.0210738 C27.9539344,36.0210738 26.3340984,25.1754362 24.2706557,22.7758389 C22.2067404,20.3424503 18.5776048,20.0571747 16.1647543,22.138658 C13.7519039,24.2201413 13.4690358,27.8801682 15.5329508,30.313557 L15.5396721,30.313557 Z" id="Path" fill="#6C63FF" fill-rule="nonzero"></path>
                        <path d="M7.11786885,56.4447651 C9.80639344,58.139396 20.6545902,58.1461745 20.6545902,58.1461745 C20.6545902,58.1461745 15.8959016,48.3173154 13.207377,46.6226846 C10.5199567,44.9895287 7.03041215,45.8321395 5.36781239,48.5156827 C3.70521263,51.199226 4.4841972,54.7316339 7.11786885,56.4515436 L7.11786885,56.4447651 Z" id="Path" fill="#6C63FF" fill-rule="nonzero"></path>
                        <path d="M2.39278689,82.975906 C4.75868852,85.1043624 15.4522951,86.9616779 15.4522951,86.9616779 C15.4522951,86.9616779 12.4142623,76.461745 10.0752459,74.3332886 C7.69974288,72.2701556 4.12300142,72.5077745 2.03637966,74.8673465 C-0.0502421005,77.2269185 0.123287154,80.8376846 2.42639344,82.9826846 L2.39278689,82.975906 Z" id="Path" fill="#6C63FF" fill-rule="nonzero"></path>
                    </g>
                </g>
            </g>
        </g>
    </g>
</svg>