<?xml version="1.0" encoding="UTF-8"?>
<svg width="70px" height="80px" viewBox="0 0 70 80" version="1.1" xmlns="http://www.w3.org/2000/svg" xmlns:xlink="http://www.w3.org/1999/xlink">
    <!-- Generator: sketchtool 64 (101010) - https://sketch.com -->
    <title>7AD6C66A-8BFA-44FB-A2A5-9C3BEF345889</title>
    <desc>Created with sketchtool.</desc>
    <g id="Dump" stroke="none" stroke-width="1" fill="none" fill-rule="evenodd">
        <g id="Hero-Screen" transform="translate(-845.000000, -5345.000000)" fill-rule="nonzero">
            <g id="Support-footer" transform="translate(0.000000, 5291.000000)">
                <g id="swap" transform="translate(845.000000, 54.000000)">
                    <polygon id="Path" fill="#FFAD61" points="68 22.5000783 41.7078435 2 41.7078435 16.6837559 1 16.6837559 1 28.3160875 41.7078435 28.3160875 41.7078435 43"></polygon>
                    <polygon id="Path" fill="#FFE6B8" points="1 57.5 27.2923114 78 27.2923114 63.3160315 68 63.3160315 68 51.6836554 27.2923114 51.6836554 27.2923114 37"></polygon>
                    <g id="Group" fill="#4D3D36">
                        <path d="M42.1768502,44.103125 C41.9404846,44.103125 41.7031938,44.0492188 41.4831718,43.9396875 C40.9452203,43.6715625 40.6044714,43.1170313 40.6044714,42.5095313 L40.6044714,29.449375 L1.64361233,29.449375 C0.775242291,29.449375 0.0710792952,28.7359375 0.0710792952,27.8557813 L0.0710792952,16.2473437 C0.0710792952,15.3671875 0.775242291,14.65375 1.64361233,14.65375 L40.6043172,14.65375 L40.6043172,1.59375 C40.6043172,0.98625 40.9450661,0.43171875 41.4830176,0.16359375 C42.020815,-0.1046875 42.6622247,-0.0390625 43.1372687,0.33171875 L69.316652,20.7896875 C69.7027313,21.0914063 69.9290749,21.5575 69.9290749,22.0517188 C69.9290749,22.5459375 69.7028855,23.0120313 69.316652,23.31375 L43.1371145,43.7715625 C42.8568062,43.990625 42.5179075,44.103125 42.1768502,44.103125 Z M3.21614537,26.2621875 L42.1768502,26.2621875 C43.0452203,26.2621875 43.7493833,26.975625 43.7493833,27.8557812 L43.7493833,39.2682813 L65.7810352,22.0517187 L43.7495374,4.83515625 L43.7495374,16.2475 C43.7495374,17.1276562 43.0453744,17.8410937 42.1770044,17.8410937 L3.21614537,17.8410937 L3.21614537,26.2621875 Z" id="Shape"></path>
                        <path d="M27.8231498,80 C27.4819383,80 27.143348,79.8875 26.8627313,79.6684375 L0.683348018,59.210625 C0.297268722,58.9089063 0.0709251101,58.4428125 0.0709251101,57.9485938 C0.0709251101,57.454375 0.297114537,56.9882812 0.683348018,56.6865625 L26.8627313,36.22875 C27.337467,35.8576563 27.979185,35.7926563 28.5169824,36.060625 C29.0549339,36.3285938 29.3956828,36.8832813 29.3956828,37.4907813 L29.3956828,50.5509375 L68.3563877,50.5509375 C69.2247577,50.5509375 69.9289207,51.264375 69.9289207,52.1445312 L69.9289207,63.7529687 C69.9289207,64.633125 69.2247577,65.3465625 68.3563877,65.3465625 L29.3955286,65.3465625 L29.3955286,78.4064062 C29.3955286,79.0139062 29.0547797,79.5684375 28.5168282,79.8365625 C28.2968062,79.94625 28.059207,80 27.8231498,80 Z M4.21881057,57.9485938 L26.2504626,75.1651562 L26.2504626,63.7528125 C26.2504626,62.8726563 26.9546256,62.1592188 27.8229956,62.1592188 L66.7837004,62.1592188 L66.7837004,53.7379688 L27.8228414,53.7379688 C26.9544714,53.7379688 26.2503084,53.0245313 26.2503084,52.144375 L26.2503084,40.731875 L4.21881057,57.9485938 Z" id="Shape"></path>
                        <path d="M22.4940529,69.1304688 C22.1576211,69.1304688 21.8188767,69.0215625 21.5325551,68.796875 L21.1797797,68.5201562 C20.4930396,67.9815625 20.3672247,66.9804688 20.8987004,66.2845313 C21.4304846,65.5884375 22.4186564,65.46125 23.1047797,65.9996875 L23.4575551,66.2764063 C24.1442952,66.815 24.2701101,67.8160938 23.7386344,68.5120313 C23.4288767,68.9178125 22.9638546,69.1304688 22.4940529,69.1304688 Z" id="Path"></path>
                        <path d="M18.0888326,65.674375 C17.7524009,65.674375 17.4136564,65.5654687 17.1271806,65.3407812 L10.6059251,60.224375 C9.91918502,59.685625 9.79352423,58.6846875 10.3251542,57.98875 C10.8569383,57.2926563 11.8443392,57.1653125 12.5312335,57.7040625 L19.052489,62.8204687 C19.7392291,63.3592187 19.8648899,64.3601562 19.3332599,65.0560937 C19.0235022,65.4617187 18.5586344,65.674375 18.0888326,65.674375 Z" id="Path"></path>
                    </g>
                </g>
            </g>
        </g>
    </g>
</svg>