<?xml version="1.0" encoding="UTF-8"?>
<svg width="104px" height="63px" viewBox="0 0 104 63" version="1.1" xmlns="http://www.w3.org/2000/svg" xmlns:xlink="http://www.w3.org/1999/xlink">
    <!-- Generator: sketchtool 64 (101010) - https://sketch.com -->
    <title>A086533E-E06F-4ED0-B7F7-F38D5632D7B7</title>
    <desc>Created with sketchtool.</desc>
    <g id="Dump" stroke="none" stroke-width="1" fill="none" fill-rule="evenodd">
        <g id="Hero-Screen" transform="translate(-508.000000, -5354.000000)" fill-rule="nonzero">
            <g id="Support-footer" transform="translate(0.000000, 5291.000000)">
                <g id="truck" transform="translate(508.000000, 63.000000)">
                    <polygon id="Path" fill="#FFAD61" points="85.9006937 17 71 17 71 54 101 54 101 34.4276841 85.9006937 34.4276841"></polygon>
                    <rect id="Rectangle" fill="#FFE6B8" x="6" y="2" width="65" height="38"></rect>
                    <rect id="Rectangle" fill="#FFAD61" x="6" y="40" width="65" height="14"></rect>
                    <g id="Group" transform="translate(12.000000, 17.000000)" fill="#FFE6B8">
                        <ellipse id="Oval" cx="7.42885135" cy="36.6823243" rx="7.33621622" ry="7.17318919"></ellipse>
                        <ellipse id="Oval" cx="74.2680405" cy="36.6823243" rx="7.33621622" ry="7.17318919"></ellipse>
                        <polygon id="Path" points="74.6081757 0.0202162162 74.4723649 0.0202162162 74.4723649 17.289027 89.9596622 17.289027 89.9596622 17.156036"></polygon>
                    </g>
                    <g id="Group" fill="#4D3D36">
                        <path d="M77.013625,55.6328121 C77.9603906,59.7833885 81.7204375,62.8942643 86.2044219,62.8942643 C90.6884062,62.8942643 94.4484531,59.7833885 95.3954219,55.6328121 L101.928328,55.6328121 C103.072531,55.6328121 104,54.7165032 104,53.5865159 L104,33.9539904 C104,33.4024395 103.778188,32.9030541 103.419062,32.535086 C103.460297,32.4953599 103.4865,32.4712834 103.4865,32.4712834 L88.1030313,15.1246146 C88.1030313,15.1246146 88.0654531,15.1406656 88.0022813,15.1659459 C87.6222344,14.7143121 87.0494219,14.4265987 86.4085625,14.4265987 L73.1650156,14.4265987 L73.1650156,2.15203185 C73.1650156,1.02204459 72.2375469,0.105735669 71.0933438,0.105735669 L5.9515625,0.105735669 C4.80735938,0.105735669 3.87989062,1.02204459 3.87989062,2.15203185 L3.87989062,47.1027325 L2.07167187,47.1027325 C0.92746875,47.1027325 0,48.0190414 0,49.1490287 C0,50.2790159 0.92746875,51.1953248 2.07167187,51.1953248 L3.87989062,51.1953248 L3.87989062,53.5867166 C3.87989062,54.7167038 4.80735937,55.6330127 5.9515625,55.6330127 L10.0341719,55.6330127 C10.9809375,59.7835892 14.7409844,62.8942643 19.2249687,62.8942643 C23.7089531,62.8942643 27.469,59.7835892 28.4159688,55.6330127 L77.0138281,55.6330127 L77.0138281,55.6328121 L77.013625,55.6328121 Z M88.4804375,21.7610828 L97.4786719,31.9076943 L88.4804375,31.9076943 L88.4804375,21.7610828 Z M69.0216719,38.4293981 L8.02323438,38.4293981 L8.02323438,4.19812739 L69.0216719,4.19812739 L69.0216719,38.4293981 L69.0216719,38.4293981 Z M8.02323438,42.5219904 L69.0214688,42.5219904 L69.0214688,51.5400191 L28.4157656,51.5400191 C27.469,47.3894427 23.7089531,44.2787675 19.2247656,44.2787675 C14.7407813,44.2787675 10.9807344,47.3894427 10.0339688,51.5400191 L8.02323438,51.5400191 C8.02323438,51.5400191 8.02323438,42.5219904 8.02323438,42.5219904 Z M19.2249688,58.8014713 C16.3137812,58.8014713 13.9453437,56.4618439 13.9453437,53.5865159 C13.9453437,50.7111879 16.3137812,48.3715605 19.2249688,48.3715605 C22.1361562,48.3715605 24.5047969,50.7111879 24.5047969,53.5865159 C24.5045938,56.4618439 22.1361562,58.8014713 19.2249688,58.8014713 Z M86.2044219,58.8014713 C83.2932344,58.8014713 80.9247969,56.4618439 80.9247969,53.5865159 C80.9247969,50.7111879 83.2932344,48.3715605 86.2044219,48.3715605 C89.1156094,48.3715605 91.48425,50.7111879 91.48425,53.5865159 C91.48425,56.4618439 89.1156094,58.8014713 86.2044219,58.8014713 Z M73.1648125,18.5189904 L84.3368906,18.5189904 L84.3368906,33.9537898 C84.3368906,35.0837771 85.2643594,36.000086 86.4085625,36.000086 L99.8564531,36.000086 L99.8564531,51.5400191 L95.3952187,51.5400191 C94.4484531,47.3894427 90.6884062,44.2787675 86.2042187,44.2787675 C81.7202344,44.2787675 77.9601875,47.3894427 77.0134219,51.5400191 L73.1648125,51.5400191 L73.1648125,18.5189904 L73.1648125,18.5189904 Z" id="Shape"></path>
                        <path d="M64.0158594,32.1137484 L46.6135312,32.1137484 C45.4693281,32.1137484 44.5418594,33.0300573 44.5418594,34.1600446 C44.5418594,35.2900318 45.4693281,36.2063408 46.6135312,36.2063408 L64.0158594,36.2063408 C65.1600625,36.2063408 66.0875313,35.2900318 66.0875313,34.1600446 C66.0875313,33.0300573 65.1600625,32.1137484 64.0158594,32.1137484 Z" id="Path"></path>
                        <path d="M40.1913281,32.1137484 L38.9482031,32.1137484 C37.804,32.1137484 36.8765312,33.0300573 36.8765312,34.1600446 C36.8765312,35.2900318 37.804,36.2063408 38.9482031,36.2063408 L40.1913281,36.2063408 C41.3355312,36.2063408 42.263,35.2900318 42.263,34.1600446 C42.263,33.0300573 41.3355312,32.1137484 40.1913281,32.1137484 Z" id="Path"></path>
                    </g>
                </g>
            </g>
        </g>
    </g>
</svg>