<?xml version="1.0" encoding="UTF-8"?>
<svg width="212px" height="214px" viewBox="0 0 212 214" version="1.1" xmlns="http://www.w3.org/2000/svg" xmlns:xlink="http://www.w3.org/1999/xlink">
    <!-- Generator: sketchtool 64 (101010) - https://sketch.com -->
    <title>19C92BF9-9E7B-404C-9167-56651FB42176</title>
    <desc>Created with sketchtool.</desc>
    <g id="Dump" stroke="none" stroke-width="1" fill="none" fill-rule="evenodd">
        <g id="Dialog-confirmation" transform="translate(-998.000000, -1360.000000)">
            <g id="Group-12" transform="translate(0.000000, 1120.000000)">
                <g id="undraw_happy_feeling" transform="translate(998.000000, 240.000000)">
                    <path d="M186.399113,81.6581326 C174.566107,35.0414824 133.679345,1.39078 85.6871354,0.0410781872 C60.3150924,-0.672467527 33.6166199,7.75796848 14.1781658,37.2591333 C-20.5701753,89.9956549 16.3135309,126.43821 42.0278761,143.754987 C54.4510211,152.13796 65.6449664,162.217764 75.2854859,173.702443 C92.654689,194.352145 126.069076,220.012303 165.8641,179.806782 C194.707583,150.665772 194.281076,112.709428 186.399113,81.6581326 Z" id="Path" fill-opacity="0.3" fill="#FCE86B" fill-rule="nonzero"></path>
                    <path d="M207,188.408489 C207,197.633222 163.782036,214 110.469976,214 C57.1579156,214 19,180.832687 19,171.607957 C19,162.383227 57.1579213,180.594288 110.469976,180.594288 C163.78203,180.594288 207,179.183756 207,188.408489 Z" id="Path" fill="#3F3D56" fill-rule="nonzero"></path>
                    <path d="M207,188.408489 C207,197.633222 163.782036,214 110.469976,214 C57.1579156,214 19,180.832687 19,171.607957 C19,162.383227 57.1579213,180.594288 110.469976,180.594288 C163.78203,180.594288 207,179.183756 207,188.408489 Z" id="Path" fill="#000000" fill-rule="nonzero" opacity="0.1"></path>
                    <path d="M207,188.522307 C207,197.622685 163.782036,205 110.469976,205 C57.1579156,205 19,181.14499 19,172.044612 C19,162.944235 57.1579213,172.044612 110.469976,172.044612 C163.78203,172.044612 207,179.421927 207,188.522307 Z" id="Path" fill="#3F3D56" fill-rule="nonzero"></path>
                    <g id="Group" opacity="0.7" transform="translate(172.000000, 29.000000)">
                        <path d="M31.2361136,20.4230396 C27.7985204,27.2063045 16.9031593,35.1993584 10.2308977,31.7045713 C3.5586361,28.2097841 3.63613017,14.5505624 7.07372339,7.76729745 C10.5120612,0.985482574 18.7067124,-1.67922573 25.3781466,1.81512852 C32.0495808,5.30948277 34.6721161,13.6400016 31.2361136,20.4230396 L31.2361136,20.4230396 Z" id="Path" fill="#FEE33C" fill-rule="nonzero"></path>
                        <path d="M10.7954158,33.4983123 C10.3557049,32.6270982 9.41955528,32.1367623 8.46651356,32.2784813 L9.66637958,29.9108303 L11.9952847,31.1306613 L10.7954158,33.4983123 Z" id="Path" fill="#6C63FF" fill-rule="nonzero"></path>
                        <path d="M9.09797415,31.0477071 C9.64058096,31.8100674 10.5103587,32.2610598 11.4359654,32.2599914" id="Path" stroke="#2F2E41" stroke-width="2"></path>
                        <ellipse id="Oval" fill="#FFFFFF" fill-rule="nonzero" opacity="0.4" transform="translate(26.801322, 11.546181) rotate(-62.742160) translate(-26.801322, -11.546181) " cx="26.801322" cy="11.5461812" rx="3.48378099" ry="2.87553078"></ellipse>
                        <line x1="10.1684522" y1="31.7895128" x2="0.0293755932" y2="57.7281307" id="Path" stroke="#2F2E41" stroke-width="2"></line>
                    </g>
                    <path d="M206.320877,91.3515922 C198.69484,99.0299121 180.286807,105.114648 172.593296,97.5036686 C164.899785,89.8926893 170.834167,71.4681154 178.460207,63.7897983 C186.087046,56.1160237 198.502275,56.0636093 206.193891,63.6727127 C213.885506,71.281816 213.942353,83.6725117 206.320877,91.3515922 Z" id="Path" fill="#FEE33C" fill-rule="nonzero"></path>
                    <path d="M172.511011,100 C172.292604,98.7186216 171.283252,97.7181215 170,97.5110097 L172.488989,95 L175,97.4889877 L172.511011,100 Z" id="Path" fill="#FF6584" fill-rule="nonzero"></path>
                    <path d="M171,96 C171.468315,97.432024 172.584373,98.5480823 174,99" id="Path" stroke="#2F2E41" stroke-width="2"></path>
                    <line x1="172" y1="98" x2="146" y2="124" id="Path" stroke="#2F2E41" stroke-width="2"></line>
                    <ellipse id="Oval" fill="#FFFFFF" fill-rule="nonzero" opacity="0.4" transform="translate(203.784587, 77.477622) rotate(-45.252360) translate(-203.784587, -77.477622) " cx="203.784587" cy="77.4776218" rx="4.98025861" ry="4.15036891"></ellipse>
                    <path d="M182.455001,66.03162 C179.902085,76.5145257 167.149579,91.2186846 156.444679,88.7187102 C145.739779,86.2187357 141.136208,67.4613101 143.689136,56.9784185 C146.247995,46.5021406 156.991599,40.0379363 167.691441,42.5367282 C178.391284,45.03552 184.999559,55.5520022 182.455001,66.03162 Z" id="Path" fill="#FF6584" fill-rule="nonzero"></path>
                    <path d="M157.229763,91 C156.428778,90.0788047 155.130509,89.7691921 154,90.2297627 L154.770237,87 L158,87.7702349 L157.229763,91 Z" id="Path" fill="#6C63FF" fill-rule="nonzero"></path>
                    <path d="M155,89 C156.105547,89.8760707 157.593625,90.2020342 159,89.8762002" id="Path" stroke="#2F2E41" stroke-width="2"></path>
                    <ellipse id="Oval" fill="#FFFFFF" fill-rule="nonzero" opacity="0.4" transform="translate(172.865559, 55.757941) rotate(-76.586590) translate(-172.865559, -55.757941) " cx="172.865559" cy="55.7579414" rx="4.9715367" ry="4.15762304"></ellipse>
                    <line x1="156" y1="90" x2="148" y2="125" id="Path" stroke="#2F2E41" stroke-width="2"></line>
                    <g id="Group" opacity="0.8" transform="translate(38.000000, 135.000000)">
                        <path d="M26.712878,24.1909648 C21.1644004,29.5901315 7.93209343,33.709334 2.53291815,28.1608564 C-2.86625713,22.6123788 1.61225259,9.49732648 7.16072731,4.09814833 C10.7499633,0.605493016 15.9298635,-0.707018995 20.7492097,0.655022874 C25.5685559,2.01706474 29.2951748,5.84673393 30.5252851,10.7014311 C31.7553953,15.5561283 30.3021139,20.6983095 26.712878,24.1909648 L26.712878,24.1909648 Z" id="Path" fill="#FF6584" fill-rule="nonzero"></path>
                        <path d="M2.50686093,30.0714553 C2.35762603,29.0892415 1.6000953,28.3107634 0.622316389,28.1347992 L2.5589725,26.2502546 L4.44351704,28.1869107 L2.50686093,30.0714553 Z" id="Path" fill="#6C63FF" fill-rule="nonzero"></path>
                        <path d="M1.63660194,27.1576849 C1.92155804,28.0688948 2.62685468,28.7877732 3.53246435,29.0900556" id="Path" stroke="#2F2E41" stroke-width="2"></path>
                        <ellipse id="Oval" fill="#FFFFFF" fill-rule="nonzero" opacity="0.4" transform="translate(25.236788, 14.198016) rotate(-44.218670) translate(-25.236788, -14.198016) " cx="25.2367883" cy="14.1980155" rx="3.54670139" ry="2.95558306"></ellipse>
                    </g>
                    <path d="M124.566333,46 L128.43367,46 C133.717008,46 138,50.2829922 138,55.5663309 L138,69 L115,69 L115,55.5663338 C115,53.0291841 116.007878,50.5959492 117.801913,48.8019135 C119.595949,47.0078777 122.029183,46 124.566333,46 L124.566333,46 Z" id="Path" fill="#2F2E41" fill-rule="nonzero"></path>
                    <path d="M113.460994,107 L110.8629,113.008347 C110.8629,113.008347 108.745272,121.079752 111.144762,121.942575 C113.544253,122.805398 114.012632,113.659767 114.012632,113.659767 L116,107.603662 L113.460994,107 Z" id="Path" fill="#FFB9B9" fill-rule="nonzero"></path>
                    <path d="M113.460994,107 L110.8629,113.008347 C110.8629,113.008347 108.745272,121.079752 111.144762,121.942575 C113.544253,122.805398 114.012632,113.659767 114.012632,113.659767 L116,107.603662 L113.460994,107 Z" id="Path" fill="#000000" fill-rule="nonzero" opacity="0.1"></path>
                    <polygon id="Path" fill="#575A89" fill-rule="nonzero" points="113.789427 97 110 109.92311 116 113 116 97.6152634"></polygon>
                    <path d="M123.842105,62.8219184 C123.842105,62.8219184 123.526315,67.7534262 122.894736,67.7534262 C122.263156,67.7534262 121,73.6095893 121,73.6095893 L126.36842,77 L133,71.1438369 L131.105252,66.5205485 C131.105252,66.5205485 130.157883,64.6712349 130.473673,62.8219184 C130.789463,60.972602 123.842105,62.8219184 123.842105,62.8219184 Z" id="Path" fill="#FFB9B9" fill-rule="nonzero"></path>
                    <path d="M123.842105,62.8219184 C123.842105,62.8219184 123.526315,67.7534262 122.894736,67.7534262 C122.263156,67.7534262 121,73.6095893 121,73.6095893 L126.36842,77 L133,71.1438369 L131.105252,66.5205485 C131.105252,66.5205485 130.157883,64.6712349 130.473673,62.8219184 C130.789463,60.972602 123.842105,62.8219184 123.842105,62.8219184 Z" id="Path" fill="#000000" fill-rule="nonzero" opacity="0.1"></path>
                    <path d="M143,110.898099 L143.570952,117.484153 C143.570952,117.484153 145.569285,125.56704 148.138568,124.968307 C150.707851,124.369574 146.711187,116.286688 146.711187,116.286688 L145.569285,110 L143,110.898099 Z" id="Path" fill="#FFB9B9" fill-rule="nonzero"></path>
                    <path d="M130,177.064097 C130,177.064097 131.799999,188.403104 130.6,190.548323 C129.4,192.693543 131.799999,193 131.799999,193 L139,191.161249 L139,187.790184 C139,187.790184 136.600001,176.757637 136.600001,176.144717 C136.600001,175.531797 130,177.064097 130,177.064097 Z" id="Path" fill="#FFB9B9" fill-rule="nonzero"></path>
                    <path d="M115,127.246924 C115,127.246924 117.120231,149.291381 120.452023,156.333361 C123.783816,163.375342 126.812718,182.664243 128.327171,182.970416 C129.841623,183.276589 141.351451,181.133379 142.8659,179.908686 C144.38035,178.683993 132.567632,148.985208 132.567632,148.679035 C132.567632,148.372861 129.841612,121.12346 129.841612,121.12346 L126.206929,115 L115,127.246924 Z" id="Path" fill="#2F2E41" fill-rule="nonzero"></path>
                    <path d="M115,127.246924 C115,127.246924 117.120231,149.291381 120.452023,156.333361 C123.783816,163.375342 126.812718,182.664243 128.327171,182.970416 C129.841623,183.276589 141.351451,181.133379 142.8659,179.908686 C144.38035,178.683993 132.567632,148.985208 132.567632,148.679035 C132.567632,148.372861 129.841612,121.12346 129.841612,121.12346 L126.206929,115 L115,127.246924 Z" id="Path" fill="#000000" fill-rule="nonzero" opacity="0.1"></path>
                    <path d="M133.560409,190.004875 C133.560409,190.004875 130.517569,188.480277 129.909,189.395036 L127.474737,193.05407 C127.474737,193.05407 117.12908,197.932781 120.780489,198.54262 C124.431897,199.15246 131.43043,199.15246 132.343283,198.54262 C133.256136,197.932781 143.297509,192.444231 142.993225,192.139311 C142.68894,191.834391 140.25466,185.431082 139.950385,186.040921 C139.646109,186.650761 135.386115,191.22456 133.560409,190.004875 Z" id="Path" fill="#2F2E41" fill-rule="nonzero"></path>
                    <path d="M81.8169583,164 C81.8169583,164 74.8280857,168.869566 71.4855648,167.956522 C68.143044,167.043478 71.4855648,174.652174 71.4855648,174.652174 L77.5628544,178 L79.3860402,176.478262 C79.3860402,176.478262 85.7671945,167.956522 88.5019774,167.652174 C91.2367603,167.347826 81.8169583,164 81.8169583,164 Z" id="Path" fill="#FFB9B9" fill-rule="nonzero"></path>
                    <path d="M113.441286,108.194135 L114.668574,114.610418 L91.6569299,149.441681 C91.6569299,149.441681 77.8499427,163.190858 79.0772258,164.718558 C80.3045088,166.246257 87.9750636,175.106825 89.8159939,173.884678 C91.6569242,172.662531 134.305177,126.831908 133.998352,120.721163 C133.691527,114.610418 123.566406,103 123.566406,103 L113.441283,107.58306 L113.441286,108.194135 Z" id="Path" fill="#2F2E41" fill-rule="nonzero"></path>
                    <path d="M72.8149414,170.031635 C72.8149414,170.031635 75.6283763,166.984866 74.0653543,166.680189 C72.3073503,166.37819 70.5330179,166.174738 68.7511022,166.070835 C68.1258958,166.070835 59.6856172,161.805358 59.0604107,163.328735 C58.4352043,164.852112 62.8116466,172.773717 65.3124696,173.687749 C67.8132925,174.60178 76.8787688,181 76.8787688,181 C76.8787688,181 81.5678144,177.039203 80.942608,176.125172 C80.3174015,175.21114 71.5645284,173.38308 72.8149414,170.031635 Z" id="Path" fill="#2F2E41" fill-rule="nonzero"></path>
                    <circle id="Oval" fill="#FFB9B9" fill-rule="nonzero" cx="126.5" cy="58.5" r="7.5"></circle>
                    <path d="M128.102659,69.5102613 C128.102659,69.5102613 122.82609,69.8123159 121.27416,68.9061551 C119.72223,68 116.307978,81.2903848 116.307978,81.2903848 L114.135278,98.8095272 C114.135278,98.8095272 113.824892,100.923906 114.135278,102.132124 C114.445665,103.340342 111.031416,101.528015 112.272959,104.85062 C113.514502,108.173226 111.341802,109.683487 113.514505,109.985542 C115.687208,110.287596 127.171502,105.756784 127.171502,105.756784 L132.44807,78.8739543 L134,68 L128.102659,69.5102613 Z" id="Path" fill="#D0CDE1" fill-rule="nonzero"></path>
                    <path d="M123,67.2434214 C123,67.2434214 120.226279,66.6713788 119.322993,67.2811466 C118.419708,67.8909143 115.107666,72.4641696 115.107666,73.6837023 C115.107666,74.903235 113.903286,88.318117 113.903286,89.5376525 C113.903286,90.757188 113,97.1597409 113,97.7695087 C113,98.3792764 113.772314,101 113.772314,101 L115.709854,97.4646248 C115.709854,97.4646248 115.107666,92.8913723 117.21533,85.574165 C119.322993,78.2569576 123,67.2434214 123,67.2434214 Z" id="Path" fill="#575A89" fill-rule="nonzero"></path>
                    <path d="M126.385631,70.8413297 C126.385631,70.8413297 130.413382,64.4304367 130.660749,65.0409985 C130.908115,65.6515603 135.430606,66.5674001 135.430606,66.5674001 C135.430606,66.5674001 143.57108,72.3677313 142.968081,74.8099784 C142.365082,77.2522255 138.144097,95.5690617 138.144097,95.5690617 C138.144097,95.5690617 134.224608,105.032761 137.239599,111.748934 C140.25459,118.465108 136.6366,120.907353 136.6366,120.907353 C136.6366,120.907353 134.224608,122.128476 134.827607,123.349597 C135.430606,124.570718 127.893139,129.149931 126.98863,125.791844 C126.08412,122.433757 114.928667,102.285235 117.340662,94.9584999 C119.752656,87.6317643 126.385631,70.8413297 126.385631,70.8413297 Z" id="Path" fill="#575A89" fill-rule="nonzero"></path>
                    <path d="M141.828267,75 C141.828267,75 145.147699,81.364866 144.544174,82.2741333 C143.940648,83.1834007 146.656539,88.6389993 146.656539,88.6389993 C146.468644,89.1265211 146.468644,89.6669203 146.656539,90.1544421 C146.958305,91.0637095 148.768906,95.0038653 148.768906,96.5193109 C148.768906,98.0347565 148.46714,102.884177 148.768906,105.005798 C149.070673,107.127419 152.993637,112.279931 149.674204,112.58302 C146.354772,112.886109 140.922974,115.613909 141.224741,112.58302 C141.526508,109.552132 142.431809,102.277999 141.224741,101.065642 C140.017674,99.8532856 139.112376,99.8532884 139.715907,98.3378344 C140.319438,96.8223803 137,92.8822358 137,92.8822358 L141.828267,75 Z" id="Path" fill="#575A89" fill-rule="nonzero"></path>
                    <polygon id="Path" fill="#2F2E41" fill-rule="nonzero" points="132.053887 57 120.594724 57 118 51 134 51"></polygon>
                    <ellipse id="Oval" fill="#FFB9B9" fill-rule="nonzero" transform="translate(119.004862, 59.529404) rotate(-16.160120) translate(-119.004862, -59.529404) " cx="119.004862" cy="59.5294037" rx="1" ry="1.55455507"></ellipse>
                    <ellipse id="Oval" fill="#FFB9B9" fill-rule="nonzero" transform="translate(133.632182, 59.529427) rotate(-73.839880) translate(-133.632182, -59.529427) " cx="133.632182" cy="59.5294267" rx="1.55455507" ry="1"></ellipse>
                    <path d="M203,175.313039 C203,182.493104 198.746824,185 193.5,185 C193.37806,185 193.256117,184.998345 193.135806,184.996691 C192.891925,184.990078 192.651343,184.978505 192.414058,184.961971 C187.678066,184.626278 184,181.990395 184,175.313039 C184,168.404185 192.796355,159.686247 193.460454,159.038029 C193.460895,159.038039 193.461319,159.037867 193.461631,159.037555 C193.461942,159.037243 193.462113,159.036816 193.462103,159.036375 C193.486824,159.013219 193.5,159 193.5,159 C193.5,159 203,168.132986 203,175.313039 Z" id="Path" fill="#FFAE3B" fill-rule="nonzero"></path>
                    <path d="M192.835315,183.905157 L196.324654,179.032954 L192.827031,184.439356 L192.817088,185 C192.57211,184.993387 192.330445,184.981812 192.092093,184.965276 L192.467846,177.782651 L192.464531,177.726418 L192.471156,177.716495 L192.507567,177.03677 L189,171.617135 L192.51749,176.527384 L192.525774,176.672921 L192.810477,171.245021 L189.807786,165.643467 L192.846914,170.290753 L193.143197,159.038034 L193.144854,159 L193.144854,159.036379 L193.095207,167.910887 L196.084646,164.393167 L193.081951,168.674958 L193.004158,173.535584 L195.79497,168.871765 L192.992559,174.250045 L192.947863,176.952423 L197,170.461097 L192.932966,177.895107 L192.835315,183.905157 Z" id="Path" fill="#3F3D56" fill-rule="nonzero"></path>
                </g>
            </g>
        </g>
    </g>
</svg>